<?xml version="1.0" encoding="UTF-8" standalone="no"?>
<!DOCTYPE svg PUBLIC "-//W3C//DTD SVG 1.1//EN"
 "http://www.w3.org/Graphics/SVG/1.1/DTD/svg11.dtd">
<!-- Generated by graphviz version 2.46.0 (20210119.1425)
 -->
<!-- Title: dependencies Pages: 1 -->
<svg width="820pt" height="284pt"
 viewBox="0.00 0.00 820.00 284.00" xmlns="http://www.w3.org/2000/svg" xmlns:xlink="http://www.w3.org/1999/xlink">
<g id="graph0" class="graph" transform="scale(1 1) rotate(0) translate(4 280)">
<title>dependencies</title>
<polygon fill="white" stroke="transparent" points="-4,4 -4,-280 816,-280 816,4 -4,4"/>
<text text-anchor="start" x="385.01" y="-42.4" font-family="sans-serif" font-weight="bold" font-size="14.00">Legend</text>
<polygon fill="#ffffb3" stroke="transparent" points="172,-10 172,-30 192,-30 192,-10 172,-10"/>
<text text-anchor="start" x="195.63" y="-15.4" font-family="sans-serif" font-size="14.00"> &#160;Declarations</text>
<polygon fill="#8dd3c7" stroke="transparent" points="285,-10 285,-30 305,-30 305,-10 285,-10"/>
<text text-anchor="start" x="308.73" y="-15.4" font-family="sans-serif" font-size="14.00"> &#160;Module</text>
<polygon fill="#80b1d3" stroke="transparent" points="371,-10 371,-30 391,-30 391,-10 371,-10"/>
<text text-anchor="start" x="394.78" y="-15.4" font-family="sans-serif" font-size="14.00"> &#160;Bootstrap</text>
<polygon fill="#fdb462" stroke="transparent" points="468,-10 468,-30 488,-30 488,-10 468,-10"/>
<text text-anchor="start" x="491.67" y="-15.4" font-family="sans-serif" font-size="14.00"> &#160;Providers</text>
<polygon fill="#fb8072" stroke="transparent" points="564,-10 564,-30 584,-30 584,-10 564,-10"/>
<text text-anchor="start" x="587.73" y="-15.4" font-family="sans-serif" font-size="14.00"> &#160;Exports</text>
<g id="clust1" class="cluster">
<title>cluster_AppModule</title>
<polygon fill="none" stroke="black" stroke-dasharray="1,5" points="8,-70 8,-268 804,-268 804,-70 8,-70"/>
</g>
<g id="clust2" class="cluster">
<title>cluster_AppModule_declarations</title>
<polygon fill="none" stroke="black" points="146,-78 146,-130 796,-130 796,-78 146,-78"/>
</g>
<g id="clust10" class="cluster">
<title>cluster_AppModule_bootstrap</title>
<polygon fill="none" stroke="black" points="343,-208 343,-260 467,-260 467,-208 343,-208"/>
</g>
<g id="clust8" class="cluster">
<title>cluster_AppModule_imports</title>
<polygon fill="none" stroke="black" points="16,-78 16,-130 138,-130 138,-78 16,-78"/>
</g>
<!-- AppComponent -->
<g id="node1" class="node">
<title>AppComponent</title>
<polygon fill="#ffffb3" stroke="black" points="787.94,-122 682.06,-122 682.06,-86 787.94,-86 787.94,-122"/>
<text text-anchor="middle" x="735" y="-99.8" font-family="Times,serif" font-size="14.00">AppComponent</text>
</g>
<!-- AppModule -->
<g id="node6" class="node">
<title>AppModule</title>
<polygon fill="#8dd3c7" stroke="black" points="446.66,-187 443.66,-191 422.66,-191 419.66,-187 363.34,-187 363.34,-151 446.66,-151 446.66,-187"/>
<text text-anchor="middle" x="405" y="-164.8" font-family="Times,serif" font-size="14.00">AppModule</text>
</g>
<!-- AppComponent&#45;&gt;AppModule -->
<g id="edge1" class="edge">
<title>AppComponent&#45;&gt;AppModule</title>
<path fill="none" stroke="black" d="M735,-122.28C735,-143.32 735,-175 735,-175 735,-175 456.79,-175 456.79,-175"/>
<polygon fill="black" stroke="black" points="456.79,-171.5 446.79,-175 456.79,-178.5 456.79,-171.5"/>
</g>
<!-- FooterComponent -->
<g id="node2" class="node">
<title>FooterComponent</title>
<polygon fill="#ffffb3" stroke="black" points="663.88,-122 546.12,-122 546.12,-86 663.88,-86 663.88,-122"/>
<text text-anchor="middle" x="605" y="-99.8" font-family="Times,serif" font-size="14.00">FooterComponent</text>
</g>
<!-- FooterComponent&#45;&gt;AppModule -->
<g id="edge2" class="edge">
<title>FooterComponent&#45;&gt;AppModule</title>
<path fill="none" stroke="black" d="M605,-122.02C605,-139.37 605,-163 605,-163 605,-163 456.93,-163 456.93,-163"/>
<polygon fill="black" stroke="black" points="456.93,-159.5 446.93,-163 456.93,-166.5 456.93,-159.5"/>
</g>
<!-- LoginComponent -->
<g id="node3" class="node">
<title>LoginComponent</title>
<polygon fill="#ffffb3" stroke="black" points="528.28,-122 413.72,-122 413.72,-86 528.28,-86 528.28,-122"/>
<text text-anchor="middle" x="471" y="-99.8" font-family="Times,serif" font-size="14.00">LoginComponent</text>
</g>
<!-- LoginComponent&#45;&gt;AppModule -->
<g id="edge3" class="edge">
<title>LoginComponent&#45;&gt;AppModule</title>
<path fill="none" stroke="black" d="M430.22,-122.11C430.22,-122.11 430.22,-140.99 430.22,-140.99"/>
<polygon fill="black" stroke="black" points="426.72,-140.99 430.22,-150.99 433.72,-140.99 426.72,-140.99"/>
</g>
<!-- PagesComponent -->
<g id="node4" class="node">
<title>PagesComponent</title>
<polygon fill="#ffffb3" stroke="black" points="395.99,-122 282.01,-122 282.01,-86 395.99,-86 395.99,-122"/>
<text text-anchor="middle" x="339" y="-99.8" font-family="Times,serif" font-size="14.00">PagesComponent</text>
</g>
<!-- PagesComponent&#45;&gt;AppModule -->
<g id="edge4" class="edge">
<title>PagesComponent&#45;&gt;AppModule</title>
<path fill="none" stroke="black" d="M379.58,-122.11C379.58,-122.11 379.58,-140.99 379.58,-140.99"/>
<polygon fill="black" stroke="black" points="376.08,-140.99 379.58,-150.99 383.08,-140.99 376.08,-140.99"/>
</g>
<!-- SiderComponent -->
<g id="node5" class="node">
<title>SiderComponent</title>
<polygon fill="#ffffb3" stroke="black" points="264.38,-122 153.62,-122 153.62,-86 264.38,-86 264.38,-122"/>
<text text-anchor="middle" x="209" y="-99.8" font-family="Times,serif" font-size="14.00">SiderComponent</text>
</g>
<!-- SiderComponent&#45;&gt;AppModule -->
<g id="edge5" class="edge">
<title>SiderComponent&#45;&gt;AppModule</title>
<path fill="none" stroke="black" d="M209,-122.02C209,-139.37 209,-163 209,-163 209,-163 352.95,-163 352.95,-163"/>
<polygon fill="black" stroke="black" points="352.95,-166.5 362.95,-163 352.95,-159.5 352.95,-166.5"/>
</g>
<!-- AppComponent  -->
<g id="node8" class="node">
<title>AppComponent </title>
<polygon fill="#80b1d3" stroke="black" points="459.44,-252 350.56,-252 350.56,-216 459.44,-216 459.44,-252"/>
<text text-anchor="middle" x="405" y="-229.8" font-family="Times,serif" font-size="14.00">AppComponent </text>
</g>
<!-- AppModule&#45;&gt;AppComponent  -->
<g id="edge7" class="edge">
<title>AppModule&#45;&gt;AppComponent </title>
<path fill="none" stroke="black" stroke-dasharray="1,5" d="M405,-187.11C405,-187.11 405,-205.99 405,-205.99"/>
<polygon fill="black" stroke="black" points="401.5,-205.99 405,-215.99 408.5,-205.99 401.5,-205.99"/>
</g>
<!-- NgzorroModule -->
<g id="node7" class="node">
<title>NgzorroModule</title>
<polygon fill="#8dd3c7" stroke="black" points="130.19,-122 127.19,-126 106.19,-126 103.19,-122 23.81,-122 23.81,-86 130.19,-86 130.19,-122"/>
<text text-anchor="middle" x="77" y="-99.8" font-family="Times,serif" font-size="14.00">NgzorroModule</text>
</g>
<!-- NgzorroModule&#45;&gt;AppModule -->
<g id="edge6" class="edge">
<title>NgzorroModule&#45;&gt;AppModule</title>
<path fill="none" stroke="black" d="M77,-122.28C77,-143.32 77,-175 77,-175 77,-175 353.13,-175 353.13,-175"/>
<polygon fill="black" stroke="black" points="353.13,-178.5 363.13,-175 353.13,-171.5 353.13,-178.5"/>
</g>
</g>
</svg>
