<?xml version="1.0" encoding="UTF-8" standalone="no"?>
<!DOCTYPE svg PUBLIC "-//W3C//DTD SVG 1.1//EN"
 "http://www.w3.org/Graphics/SVG/1.1/DTD/svg11.dtd">
<!-- Generated by graphviz version 2.46.0 (20210119.1425)
 -->
<!-- Title: dependencies Pages: 1 -->
<svg width="1405pt" height="284pt"
 viewBox="0.00 0.00 1405.00 284.00" xmlns="http://www.w3.org/2000/svg" xmlns:xlink="http://www.w3.org/1999/xlink">
<g id="graph0" class="graph" transform="scale(1 1) rotate(0) translate(4 280)">
<title>dependencies</title>
<polygon fill="white" stroke="transparent" points="-4,4 -4,-280 1401,-280 1401,4 -4,4"/>
<text text-anchor="start" x="677.51" y="-42.4" font-family="sans-serif" font-weight="bold" font-size="14.00">Legend</text>
<polygon fill="#ffffb3" stroke="transparent" points="464.5,-10 464.5,-30 484.5,-30 484.5,-10 464.5,-10"/>
<text text-anchor="start" x="488.13" y="-15.4" font-family="sans-serif" font-size="14.00"> &#160;Declarations</text>
<polygon fill="#8dd3c7" stroke="transparent" points="577.5,-10 577.5,-30 597.5,-30 597.5,-10 577.5,-10"/>
<text text-anchor="start" x="601.23" y="-15.4" font-family="sans-serif" font-size="14.00"> &#160;Module</text>
<polygon fill="#80b1d3" stroke="transparent" points="663.5,-10 663.5,-30 683.5,-30 683.5,-10 663.5,-10"/>
<text text-anchor="start" x="687.28" y="-15.4" font-family="sans-serif" font-size="14.00"> &#160;Bootstrap</text>
<polygon fill="#fdb462" stroke="transparent" points="760.5,-10 760.5,-30 780.5,-30 780.5,-10 760.5,-10"/>
<text text-anchor="start" x="784.17" y="-15.4" font-family="sans-serif" font-size="14.00"> &#160;Providers</text>
<polygon fill="#fb8072" stroke="transparent" points="856.5,-10 856.5,-30 876.5,-30 876.5,-10 856.5,-10"/>
<text text-anchor="start" x="880.23" y="-15.4" font-family="sans-serif" font-size="14.00"> &#160;Exports</text>
<g id="clust1" class="cluster">
<title>cluster_AppModule</title>
<polygon fill="none" stroke="black" stroke-dasharray="1,5" points="8,-70 8,-268 1389,-268 1389,-70 8,-70"/>
</g>
<g id="clust12" class="cluster">
<title>cluster_AppModule_imports</title>
<polygon fill="none" stroke="black" points="1259,-78 1259,-130 1381,-130 1381,-78 1259,-78"/>
</g>
<g id="clust2" class="cluster">
<title>cluster_AppModule_declarations</title>
<polygon fill="none" stroke="black" points="16,-78 16,-130 1251,-130 1251,-78 16,-78"/>
</g>
<g id="clust14" class="cluster">
<title>cluster_AppModule_bootstrap</title>
<polygon fill="none" stroke="black" points="603,-208 603,-260 727,-260 727,-208 603,-208"/>
</g>
<!-- AppComponent -->
<g id="node1" class="node">
<title>AppComponent</title>
<polygon fill="#ffffb3" stroke="black" points="1242.94,-122 1137.06,-122 1137.06,-86 1242.94,-86 1242.94,-122"/>
<text text-anchor="middle" x="1190" y="-99.8" font-family="Times,serif" font-size="14.00">AppComponent</text>
</g>
<!-- AppModule -->
<g id="node10" class="node">
<title>AppModule</title>
<polygon fill="#8dd3c7" stroke="black" points="706.66,-187 703.66,-191 682.66,-191 679.66,-187 623.34,-187 623.34,-151 706.66,-151 706.66,-187"/>
<text text-anchor="middle" x="665" y="-164.8" font-family="Times,serif" font-size="14.00">AppModule</text>
</g>
<!-- AppComponent&#45;&gt;AppModule -->
<g id="edge1" class="edge">
<title>AppComponent&#45;&gt;AppModule</title>
<path fill="none" stroke="black" d="M1190,-122.13C1190,-142.57 1190,-173 1190,-173 1190,-173 717.08,-173 717.08,-173"/>
<polygon fill="black" stroke="black" points="717.08,-169.5 707.08,-173 717.08,-176.5 717.08,-169.5"/>
</g>
<!-- BreadcrumbComponent -->
<g id="node2" class="node">
<title>BreadcrumbComponent</title>
<polygon fill="#ffffb3" stroke="black" points="1119.03,-122 968.97,-122 968.97,-86 1119.03,-86 1119.03,-122"/>
<text text-anchor="middle" x="1044" y="-99.8" font-family="Times,serif" font-size="14.00">BreadcrumbComponent</text>
</g>
<!-- BreadcrumbComponent&#45;&gt;AppModule -->
<g id="edge2" class="edge">
<title>BreadcrumbComponent&#45;&gt;AppModule</title>
<path fill="none" stroke="black" d="M1044,-122.27C1044,-140.56 1044,-166 1044,-166 1044,-166 717.01,-166 717.01,-166"/>
<polygon fill="black" stroke="black" points="717.01,-162.5 707.01,-166 717.01,-169.5 717.01,-162.5"/>
</g>
<!-- DashboardComponent -->
<g id="node3" class="node">
<title>DashboardComponent</title>
<polygon fill="#ffffb3" stroke="black" points="950.97,-122 809.03,-122 809.03,-86 950.97,-86 950.97,-122"/>
<text text-anchor="middle" x="880" y="-99.8" font-family="Times,serif" font-size="14.00">DashboardComponent</text>
</g>
<!-- DashboardComponent&#45;&gt;AppModule -->
<g id="edge3" class="edge">
<title>DashboardComponent&#45;&gt;AppModule</title>
<path fill="none" stroke="black" d="M880,-122.01C880,-138.05 880,-159 880,-159 880,-159 716.71,-159 716.71,-159"/>
<polygon fill="black" stroke="black" points="716.71,-155.5 706.71,-159 716.71,-162.5 716.71,-155.5"/>
</g>
<!-- FooterComponent -->
<g id="node4" class="node">
<title>FooterComponent</title>
<polygon fill="#ffffb3" stroke="black" points="790.88,-122 673.12,-122 673.12,-86 790.88,-86 790.88,-122"/>
<text text-anchor="middle" x="732" y="-99.8" font-family="Times,serif" font-size="14.00">FooterComponent</text>
</g>
<!-- FooterComponent&#45;&gt;AppModule -->
<g id="edge4" class="edge">
<title>FooterComponent&#45;&gt;AppModule</title>
<path fill="none" stroke="black" d="M689.94,-122.11C689.94,-122.11 689.94,-140.99 689.94,-140.99"/>
<polygon fill="black" stroke="black" points="686.44,-140.99 689.94,-150.99 693.44,-140.99 686.44,-140.99"/>
</g>
<!-- LoginComponent -->
<g id="node5" class="node">
<title>LoginComponent</title>
<polygon fill="#ffffb3" stroke="black" points="655.28,-122 540.72,-122 540.72,-86 655.28,-86 655.28,-122"/>
<text text-anchor="middle" x="598" y="-99.8" font-family="Times,serif" font-size="14.00">LoginComponent</text>
</g>
<!-- LoginComponent&#45;&gt;AppModule -->
<g id="edge5" class="edge">
<title>LoginComponent&#45;&gt;AppModule</title>
<path fill="none" stroke="black" d="M639.28,-122.11C639.28,-122.11 639.28,-140.99 639.28,-140.99"/>
<polygon fill="black" stroke="black" points="635.78,-140.99 639.28,-150.99 642.78,-140.99 635.78,-140.99"/>
</g>
<!-- PagesComponent -->
<g id="node6" class="node">
<title>PagesComponent</title>
<polygon fill="#ffffb3" stroke="black" points="522.99,-122 409.01,-122 409.01,-86 522.99,-86 522.99,-122"/>
<text text-anchor="middle" x="466" y="-99.8" font-family="Times,serif" font-size="14.00">PagesComponent</text>
</g>
<!-- PagesComponent&#45;&gt;AppModule -->
<g id="edge6" class="edge">
<title>PagesComponent&#45;&gt;AppModule</title>
<path fill="none" stroke="black" d="M466,-122.01C466,-138.05 466,-159 466,-159 466,-159 613.28,-159 613.28,-159"/>
<polygon fill="black" stroke="black" points="613.28,-162.5 623.28,-159 613.28,-155.5 613.28,-162.5"/>
</g>
<!-- SiderComponent -->
<g id="node7" class="node">
<title>SiderComponent</title>
<polygon fill="#ffffb3" stroke="black" points="391.38,-122 280.62,-122 280.62,-86 391.38,-86 391.38,-122"/>
<text text-anchor="middle" x="336" y="-99.8" font-family="Times,serif" font-size="14.00">SiderComponent</text>
</g>
<!-- SiderComponent&#45;&gt;AppModule -->
<g id="edge7" class="edge">
<title>SiderComponent&#45;&gt;AppModule</title>
<path fill="none" stroke="black" d="M336,-122.27C336,-140.56 336,-166 336,-166 336,-166 613.33,-166 613.33,-166"/>
<polygon fill="black" stroke="black" points="613.33,-169.5 623.33,-166 613.33,-162.5 613.33,-169.5"/>
</g>
<!-- UserComponent -->
<g id="node8" class="node">
<title>UserComponent</title>
<polygon fill="#ffffb3" stroke="black" points="262.76,-122 155.24,-122 155.24,-86 262.76,-86 262.76,-122"/>
<text text-anchor="middle" x="209" y="-99.8" font-family="Times,serif" font-size="14.00">UserComponent</text>
</g>
<!-- UserComponent&#45;&gt;AppModule -->
<g id="edge8" class="edge">
<title>UserComponent&#45;&gt;AppModule</title>
<path fill="none" stroke="black" d="M209,-122.13C209,-142.57 209,-173 209,-173 209,-173 613.32,-173 613.32,-173"/>
<polygon fill="black" stroke="black" points="613.32,-176.5 623.32,-173 613.32,-169.5 613.32,-176.5"/>
</g>
<!-- UsersComponent -->
<g id="node9" class="node">
<title>UsersComponent</title>
<polygon fill="#ffffb3" stroke="black" points="137.7,-122 24.3,-122 24.3,-86 137.7,-86 137.7,-122"/>
<text text-anchor="middle" x="81" y="-99.8" font-family="Times,serif" font-size="14.00">UsersComponent</text>
</g>
<!-- UsersComponent&#45;&gt;AppModule -->
<g id="edge9" class="edge">
<title>UsersComponent&#45;&gt;AppModule</title>
<path fill="none" stroke="black" d="M81,-122.01C81,-144.49 81,-180 81,-180 81,-180 613,-180 613,-180"/>
<polygon fill="black" stroke="black" points="613,-183.5 623,-180 613,-176.5 613,-183.5"/>
</g>
<!-- AppComponent  -->
<g id="node12" class="node">
<title>AppComponent </title>
<polygon fill="#80b1d3" stroke="black" points="719.44,-252 610.56,-252 610.56,-216 719.44,-216 719.44,-252"/>
<text text-anchor="middle" x="665" y="-229.8" font-family="Times,serif" font-size="14.00">AppComponent </text>
</g>
<!-- AppModule&#45;&gt;AppComponent  -->
<g id="edge11" class="edge">
<title>AppModule&#45;&gt;AppComponent </title>
<path fill="none" stroke="black" stroke-dasharray="1,5" d="M665,-187.11C665,-187.11 665,-205.99 665,-205.99"/>
<polygon fill="black" stroke="black" points="661.5,-205.99 665,-215.99 668.5,-205.99 661.5,-205.99"/>
</g>
<!-- NgzorroModule -->
<g id="node11" class="node">
<title>NgzorroModule</title>
<polygon fill="#8dd3c7" stroke="black" points="1373.19,-122 1370.19,-126 1349.19,-126 1346.19,-122 1266.81,-122 1266.81,-86 1373.19,-86 1373.19,-122"/>
<text text-anchor="middle" x="1320" y="-99.8" font-family="Times,serif" font-size="14.00">NgzorroModule</text>
</g>
<!-- NgzorroModule&#45;&gt;AppModule -->
<g id="edge10" class="edge">
<title>NgzorroModule&#45;&gt;AppModule</title>
<path fill="none" stroke="black" d="M1320,-122.01C1320,-144.49 1320,-180 1320,-180 1320,-180 716.97,-180 716.97,-180"/>
<polygon fill="black" stroke="black" points="716.97,-176.5 706.97,-180 716.97,-183.5 716.97,-176.5"/>
</g>
</g>
</svg>
