<?xml version="1.0" encoding="UTF-8" standalone="no"?>
<!DOCTYPE svg PUBLIC "-//W3C//DTD SVG 1.1//EN"
 "http://www.w3.org/Graphics/SVG/1.1/DTD/svg11.dtd">
<!-- Generated by graphviz version 2.46.0 (20210119.1425)
 -->
<!-- Title: dependencies Pages: 1 -->
<svg width="1288pt" height="284pt"
 viewBox="0.00 0.00 1288.00 284.00" xmlns="http://www.w3.org/2000/svg" xmlns:xlink="http://www.w3.org/1999/xlink">
<g id="graph0" class="graph" transform="scale(1 1) rotate(0) translate(4 280)">
<title>dependencies</title>
<polygon fill="white" stroke="transparent" points="-4,4 -4,-280 1284,-280 1284,4 -4,4"/>
<text text-anchor="start" x="619.01" y="-42.4" font-family="sans-serif" font-weight="bold" font-size="14.00">Legend</text>
<polygon fill="#ffffb3" stroke="transparent" points="406,-10 406,-30 426,-30 426,-10 406,-10"/>
<text text-anchor="start" x="429.63" y="-15.4" font-family="sans-serif" font-size="14.00"> &#160;Declarations</text>
<polygon fill="#8dd3c7" stroke="transparent" points="519,-10 519,-30 539,-30 539,-10 519,-10"/>
<text text-anchor="start" x="542.73" y="-15.4" font-family="sans-serif" font-size="14.00"> &#160;Module</text>
<polygon fill="#80b1d3" stroke="transparent" points="605,-10 605,-30 625,-30 625,-10 605,-10"/>
<text text-anchor="start" x="628.78" y="-15.4" font-family="sans-serif" font-size="14.00"> &#160;Bootstrap</text>
<polygon fill="#fdb462" stroke="transparent" points="702,-10 702,-30 722,-30 722,-10 702,-10"/>
<text text-anchor="start" x="725.67" y="-15.4" font-family="sans-serif" font-size="14.00"> &#160;Providers</text>
<polygon fill="#fb8072" stroke="transparent" points="798,-10 798,-30 818,-30 818,-10 798,-10"/>
<text text-anchor="start" x="821.73" y="-15.4" font-family="sans-serif" font-size="14.00"> &#160;Exports</text>
<g id="clust1" class="cluster">
<title>cluster_AppModule</title>
<polygon fill="none" stroke="black" stroke-dasharray="1,5" points="8,-70 8,-268 1272,-268 1272,-70 8,-70"/>
</g>
<g id="clust2" class="cluster">
<title>cluster_AppModule_declarations</title>
<polygon fill="none" stroke="black" points="146,-78 146,-130 1264,-130 1264,-78 146,-78"/>
</g>
<g id="clust13" class="cluster">
<title>cluster_AppModule_bootstrap</title>
<polygon fill="none" stroke="black" points="535,-208 535,-260 659,-260 659,-208 535,-208"/>
</g>
<g id="clust11" class="cluster">
<title>cluster_AppModule_imports</title>
<polygon fill="none" stroke="black" points="16,-78 16,-130 138,-130 138,-78 16,-78"/>
</g>
<!-- BreadcrumbComponent -->
<g id="node1" class="node">
<title>BreadcrumbComponent</title>
<polygon fill="#ffffb3" stroke="black" points="1256.03,-122 1105.97,-122 1105.97,-86 1256.03,-86 1256.03,-122"/>
<text text-anchor="middle" x="1181" y="-99.8" font-family="Times,serif" font-size="14.00">BreadcrumbComponent</text>
</g>
<!-- AppModule -->
<g id="node9" class="node">
<title>AppModule</title>
<polygon fill="#8dd3c7" stroke="black" points="638.66,-187 635.66,-191 614.66,-191 611.66,-187 555.34,-187 555.34,-151 638.66,-151 638.66,-187"/>
<text text-anchor="middle" x="597" y="-164.8" font-family="Times,serif" font-size="14.00">AppModule</text>
</g>
<!-- BreadcrumbComponent&#45;&gt;AppModule -->
<g id="edge1" class="edge">
<title>BreadcrumbComponent&#45;&gt;AppModule</title>
<path fill="none" stroke="black" d="M1181,-122.01C1181,-144.49 1181,-180 1181,-180 1181,-180 649,-180 649,-180"/>
<polygon fill="black" stroke="black" points="649,-176.5 639,-180 649,-183.5 649,-176.5"/>
</g>
<!-- ConfigComponent -->
<g id="node2" class="node">
<title>ConfigComponent</title>
<polygon fill="#ffffb3" stroke="black" points="1088.22,-122 967.78,-122 967.78,-86 1088.22,-86 1088.22,-122"/>
<text text-anchor="middle" x="1028" y="-99.8" font-family="Times,serif" font-size="14.00">ConfigComponent</text>
</g>
<!-- ConfigComponent&#45;&gt;AppModule -->
<g id="edge2" class="edge">
<title>ConfigComponent&#45;&gt;AppModule</title>
<path fill="none" stroke="black" d="M1028,-122.13C1028,-142.57 1028,-173 1028,-173 1028,-173 648.72,-173 648.72,-173"/>
<polygon fill="black" stroke="black" points="648.72,-169.5 638.72,-173 648.72,-176.5 648.72,-169.5"/>
</g>
<!-- DashboardComponent -->
<g id="node3" class="node">
<title>DashboardComponent</title>
<polygon fill="#ffffb3" stroke="black" points="949.97,-122 808.03,-122 808.03,-86 949.97,-86 949.97,-122"/>
<text text-anchor="middle" x="879" y="-99.8" font-family="Times,serif" font-size="14.00">DashboardComponent</text>
</g>
<!-- DashboardComponent&#45;&gt;AppModule -->
<g id="edge3" class="edge">
<title>DashboardComponent&#45;&gt;AppModule</title>
<path fill="none" stroke="black" d="M879,-122.27C879,-140.56 879,-166 879,-166 879,-166 648.91,-166 648.91,-166"/>
<polygon fill="black" stroke="black" points="648.91,-162.5 638.91,-166 648.91,-169.5 648.91,-162.5"/>
</g>
<!-- FooterComponent -->
<g id="node4" class="node">
<title>FooterComponent</title>
<polygon fill="#ffffb3" stroke="black" points="789.88,-122 672.12,-122 672.12,-86 789.88,-86 789.88,-122"/>
<text text-anchor="middle" x="731" y="-99.8" font-family="Times,serif" font-size="14.00">FooterComponent</text>
</g>
<!-- FooterComponent&#45;&gt;AppModule -->
<g id="edge4" class="edge">
<title>FooterComponent&#45;&gt;AppModule</title>
<path fill="none" stroke="black" d="M731,-122.01C731,-138.05 731,-159 731,-159 731,-159 648.66,-159 648.66,-159"/>
<polygon fill="black" stroke="black" points="648.66,-155.5 638.66,-159 648.66,-162.5 648.66,-155.5"/>
</g>
<!-- LoginComponent -->
<g id="node5" class="node">
<title>LoginComponent</title>
<polygon fill="#ffffb3" stroke="black" points="654.28,-122 539.72,-122 539.72,-86 654.28,-86 654.28,-122"/>
<text text-anchor="middle" x="597" y="-99.8" font-family="Times,serif" font-size="14.00">LoginComponent</text>
</g>
<!-- LoginComponent&#45;&gt;AppModule -->
<g id="edge5" class="edge">
<title>LoginComponent&#45;&gt;AppModule</title>
<path fill="none" stroke="black" d="M597,-122.11C597,-122.11 597,-140.99 597,-140.99"/>
<polygon fill="black" stroke="black" points="593.5,-140.99 597,-150.99 600.5,-140.99 593.5,-140.99"/>
</g>
<!-- SiderComponent -->
<g id="node6" class="node">
<title>SiderComponent</title>
<polygon fill="#ffffb3" stroke="black" points="521.38,-122 410.62,-122 410.62,-86 521.38,-86 521.38,-122"/>
<text text-anchor="middle" x="466" y="-99.8" font-family="Times,serif" font-size="14.00">SiderComponent</text>
</g>
<!-- SiderComponent&#45;&gt;AppModule -->
<g id="edge6" class="edge">
<title>SiderComponent&#45;&gt;AppModule</title>
<path fill="none" stroke="black" d="M466,-122.01C466,-138.05 466,-159 466,-159 466,-159 545.19,-159 545.19,-159"/>
<polygon fill="black" stroke="black" points="545.19,-162.5 555.19,-159 545.19,-155.5 545.19,-162.5"/>
</g>
<!-- UserComponent -->
<g id="node7" class="node">
<title>UserComponent</title>
<polygon fill="#ffffb3" stroke="black" points="392.76,-122 285.24,-122 285.24,-86 392.76,-86 392.76,-122"/>
<text text-anchor="middle" x="339" y="-99.8" font-family="Times,serif" font-size="14.00">UserComponent</text>
</g>
<!-- UserComponent&#45;&gt;AppModule -->
<g id="edge7" class="edge">
<title>UserComponent&#45;&gt;AppModule</title>
<path fill="none" stroke="black" d="M339,-122.27C339,-140.56 339,-166 339,-166 339,-166 545.26,-166 545.26,-166"/>
<polygon fill="black" stroke="black" points="545.26,-169.5 555.26,-166 545.26,-162.5 545.26,-169.5"/>
</g>
<!-- UsersComponent -->
<g id="node8" class="node">
<title>UsersComponent</title>
<polygon fill="#ffffb3" stroke="black" points="267.7,-122 154.3,-122 154.3,-86 267.7,-86 267.7,-122"/>
<text text-anchor="middle" x="211" y="-99.8" font-family="Times,serif" font-size="14.00">UsersComponent</text>
</g>
<!-- UsersComponent&#45;&gt;AppModule -->
<g id="edge8" class="edge">
<title>UsersComponent&#45;&gt;AppModule</title>
<path fill="none" stroke="black" d="M211,-122.13C211,-142.57 211,-173 211,-173 211,-173 545.32,-173 545.32,-173"/>
<polygon fill="black" stroke="black" points="545.32,-176.5 555.32,-173 545.32,-169.5 545.32,-176.5"/>
</g>
<!-- AppComponent  -->
<g id="node11" class="node">
<title>AppComponent </title>
<polygon fill="#80b1d3" stroke="black" points="651.44,-252 542.56,-252 542.56,-216 651.44,-216 651.44,-252"/>
<text text-anchor="middle" x="597" y="-229.8" font-family="Times,serif" font-size="14.00">AppComponent </text>
</g>
<!-- AppModule&#45;&gt;AppComponent  -->
<g id="edge10" class="edge">
<title>AppModule&#45;&gt;AppComponent </title>
<path fill="none" stroke="black" stroke-dasharray="1,5" d="M597,-187.11C597,-187.11 597,-205.99 597,-205.99"/>
<polygon fill="black" stroke="black" points="593.5,-205.99 597,-215.99 600.5,-205.99 593.5,-205.99"/>
</g>
<!-- NgzorroModule -->
<g id="node10" class="node">
<title>NgzorroModule</title>
<polygon fill="#8dd3c7" stroke="black" points="130.19,-122 127.19,-126 106.19,-126 103.19,-122 23.81,-122 23.81,-86 130.19,-86 130.19,-122"/>
<text text-anchor="middle" x="77" y="-99.8" font-family="Times,serif" font-size="14.00">NgzorroModule</text>
</g>
<!-- NgzorroModule&#45;&gt;AppModule -->
<g id="edge9" class="edge">
<title>NgzorroModule&#45;&gt;AppModule</title>
<path fill="none" stroke="black" d="M77,-122.01C77,-144.49 77,-180 77,-180 77,-180 545.33,-180 545.33,-180"/>
<polygon fill="black" stroke="black" points="545.33,-183.5 555.33,-180 545.33,-176.5 545.33,-183.5"/>
</g>
</g>
</svg>
