<?xml version="1.0" encoding="UTF-8" standalone="no"?>
<!DOCTYPE svg PUBLIC "-//W3C//DTD SVG 1.1//EN"
 "http://www.w3.org/Graphics/SVG/1.1/DTD/svg11.dtd">
<!-- Generated by graphviz version 2.46.0 (20210119.1425)
 -->
<!-- Title: dependencies Pages: 1 -->
<svg width="3239pt" height="284pt"
 viewBox="0.00 0.00 3239.00 284.00" xmlns="http://www.w3.org/2000/svg" xmlns:xlink="http://www.w3.org/1999/xlink">
<g id="graph0" class="graph" transform="scale(1 1) rotate(0) translate(4 280)">
<title>dependencies</title>
<polygon fill="white" stroke="transparent" points="-4,4 -4,-280 3235,-280 3235,4 -4,4"/>
<text text-anchor="start" x="1594.51" y="-42.4" font-family="sans-serif" font-weight="bold" font-size="14.00">Legend</text>
<polygon fill="#ffffb3" stroke="transparent" points="1381.5,-10 1381.5,-30 1401.5,-30 1401.5,-10 1381.5,-10"/>
<text text-anchor="start" x="1405.13" y="-15.4" font-family="sans-serif" font-size="14.00"> &#160;Declarations</text>
<polygon fill="#8dd3c7" stroke="transparent" points="1494.5,-10 1494.5,-30 1514.5,-30 1514.5,-10 1494.5,-10"/>
<text text-anchor="start" x="1518.23" y="-15.4" font-family="sans-serif" font-size="14.00"> &#160;Module</text>
<polygon fill="#80b1d3" stroke="transparent" points="1580.5,-10 1580.5,-30 1600.5,-30 1600.5,-10 1580.5,-10"/>
<text text-anchor="start" x="1604.28" y="-15.4" font-family="sans-serif" font-size="14.00"> &#160;Bootstrap</text>
<polygon fill="#fdb462" stroke="transparent" points="1677.5,-10 1677.5,-30 1697.5,-30 1697.5,-10 1677.5,-10"/>
<text text-anchor="start" x="1701.17" y="-15.4" font-family="sans-serif" font-size="14.00"> &#160;Providers</text>
<polygon fill="#fb8072" stroke="transparent" points="1773.5,-10 1773.5,-30 1793.5,-30 1793.5,-10 1773.5,-10"/>
<text text-anchor="start" x="1797.23" y="-15.4" font-family="sans-serif" font-size="14.00"> &#160;Exports</text>
<g id="clust1" class="cluster">
<title>cluster_NgzorroModule</title>
<polygon fill="none" stroke="black" stroke-dasharray="1,5" points="8,-70 8,-268 3223,-268 3223,-70 8,-70"/>
</g>
<g id="clust4" class="cluster">
<title>cluster_NgzorroModule_exports</title>
<polygon fill="none" stroke="black" points="39,-208 39,-260 3191,-260 3191,-208 39,-208"/>
</g>
<g id="clust3" class="cluster">
<title>cluster_NgzorroModule_imports</title>
<polygon fill="none" stroke="black" points="16,-78 16,-130 3215,-130 3215,-78 16,-78"/>
</g>
<!-- CommonModule -->
<g id="node1" class="node">
<title>CommonModule</title>
<polygon fill="#8dd3c7" stroke="black" points="3206.67,-122 3203.67,-126 3182.67,-126 3179.67,-122 3095.33,-122 3095.33,-86 3206.67,-86 3206.67,-122"/>
<text text-anchor="middle" x="3151" y="-99.8" font-family="Times,serif" font-size="14.00">CommonModule</text>
</g>
<!-- NgzorroModule -->
<g id="node25" class="node">
<title>NgzorroModule</title>
<polygon fill="#8dd3c7" stroke="black" points="1678.19,-187 1675.19,-191 1654.19,-191 1651.19,-187 1571.81,-187 1571.81,-151 1678.19,-151 1678.19,-187"/>
<text text-anchor="middle" x="1625" y="-164.8" font-family="Times,serif" font-size="14.00">NgzorroModule</text>
</g>
<!-- CommonModule&#45;&gt;NgzorroModule -->
<g id="edge1" class="edge">
<title>CommonModule&#45;&gt;NgzorroModule</title>
<path fill="none" stroke="black" d="M3139.09,-122.11C3139.09,-141.34 3139.09,-169 3139.09,-169 3139.09,-169 1688.44,-169 1688.44,-169"/>
<polygon fill="black" stroke="black" points="1688.44,-165.5 1678.44,-169 1688.44,-172.5 1688.44,-165.5"/>
</g>
<!-- NzMenuModule -->
<g id="node2" class="node">
<title>NzMenuModule</title>
<polygon fill="#8dd3c7" stroke="black" points="3077.03,-122 3074.03,-126 3053.03,-126 3050.03,-122 2968.97,-122 2968.97,-86 3077.03,-86 3077.03,-122"/>
<text text-anchor="middle" x="3023" y="-99.8" font-family="Times,serif" font-size="14.00">NzMenuModule</text>
</g>
<!-- NzMenuModule&#45;&gt;NgzorroModule -->
<g id="edge2" class="edge">
<title>NzMenuModule&#45;&gt;NgzorroModule</title>
<path fill="none" stroke="black" d="M3010.62,-122.22C3010.62,-140.83 3010.62,-167 3010.62,-167 3010.62,-167 1688.47,-167 1688.47,-167"/>
<polygon fill="black" stroke="black" points="1688.47,-163.5 1678.47,-167 1688.47,-170.5 1688.47,-163.5"/>
</g>
<!-- NzLayoutModule -->
<g id="node3" class="node">
<title>NzLayoutModule</title>
<polygon fill="#8dd3c7" stroke="black" points="2950.53,-122 2947.53,-126 2926.53,-126 2923.53,-122 2835.47,-122 2835.47,-86 2950.53,-86 2950.53,-122"/>
<text text-anchor="middle" x="2893" y="-99.8" font-family="Times,serif" font-size="14.00">NzLayoutModule</text>
</g>
<!-- NzLayoutModule&#45;&gt;NgzorroModule -->
<g id="edge3" class="edge">
<title>NzLayoutModule&#45;&gt;NgzorroModule</title>
<path fill="none" stroke="black" d="M2875.54,-122.27C2875.54,-140.56 2875.54,-166 2875.54,-166 2875.54,-166 1688.33,-166 1688.33,-166"/>
<polygon fill="black" stroke="black" points="1688.33,-162.5 1678.33,-166 1688.33,-169.5 1688.33,-162.5"/>
</g>
<!-- NzBreadCrumbModule -->
<g id="node4" class="node">
<title>NzBreadCrumbModule</title>
<polygon fill="#8dd3c7" stroke="black" points="2817.19,-122 2814.19,-126 2793.19,-126 2790.19,-122 2668.81,-122 2668.81,-86 2817.19,-86 2817.19,-122"/>
<text text-anchor="middle" x="2743" y="-99.8" font-family="Times,serif" font-size="14.00">NzBreadCrumbModule</text>
</g>
<!-- NzBreadCrumbModule&#45;&gt;NgzorroModule -->
<g id="edge4" class="edge">
<title>NzBreadCrumbModule&#45;&gt;NgzorroModule</title>
<path fill="none" stroke="black" d="M2707.32,-122C2707.32,-139.68 2707.32,-164 2707.32,-164 2707.32,-164 1688.3,-164 1688.3,-164"/>
<polygon fill="black" stroke="black" points="1688.3,-160.5 1678.3,-164 1688.3,-167.5 1688.3,-160.5"/>
</g>
<!-- NzAvatarModule -->
<g id="node5" class="node">
<title>NzAvatarModule</title>
<polygon fill="#8dd3c7" stroke="black" points="2650.96,-122 2647.96,-126 2626.96,-126 2623.96,-122 2537.04,-122 2537.04,-86 2650.96,-86 2650.96,-122"/>
<text text-anchor="middle" x="2594" y="-99.8" font-family="Times,serif" font-size="14.00">NzAvatarModule</text>
</g>
<!-- NzAvatarModule&#45;&gt;NgzorroModule -->
<g id="edge5" class="edge">
<title>NzAvatarModule&#45;&gt;NgzorroModule</title>
<path fill="none" stroke="black" d="M2573.57,-122.03C2573.57,-139.06 2573.57,-162 2573.57,-162 2573.57,-162 1688.37,-162 1688.37,-162"/>
<polygon fill="black" stroke="black" points="1688.37,-158.5 1678.37,-162 1688.37,-165.5 1688.37,-158.5"/>
</g>
<!-- NzFormModule -->
<g id="node6" class="node">
<title>NzFormModule</title>
<polygon fill="#8dd3c7" stroke="black" points="2519.2,-122 2516.2,-126 2495.2,-126 2492.2,-122 2412.8,-122 2412.8,-86 2519.2,-86 2519.2,-122"/>
<text text-anchor="middle" x="2466" y="-99.8" font-family="Times,serif" font-size="14.00">NzFormModule</text>
</g>
<!-- NzFormModule&#45;&gt;NgzorroModule -->
<g id="edge6" class="edge">
<title>NzFormModule&#45;&gt;NgzorroModule</title>
<path fill="none" stroke="black" d="M2450.38,-122.04C2450.38,-138.73 2450.38,-161 2450.38,-161 2450.38,-161 1688.2,-161 1688.2,-161"/>
<polygon fill="black" stroke="black" points="1688.2,-157.5 1678.2,-161 1688.2,-164.5 1688.2,-157.5"/>
</g>
<!-- NzInputModule -->
<g id="node7" class="node">
<title>NzInputModule</title>
<polygon fill="#8dd3c7" stroke="black" points="2394.92,-122 2391.92,-126 2370.92,-126 2367.92,-122 2289.08,-122 2289.08,-86 2394.92,-86 2394.92,-122"/>
<text text-anchor="middle" x="2342" y="-99.8" font-family="Times,serif" font-size="14.00">NzInputModule</text>
</g>
<!-- NzInputModule&#45;&gt;NgzorroModule -->
<g id="edge7" class="edge">
<title>NzInputModule&#45;&gt;NgzorroModule</title>
<path fill="none" stroke="black" d="M2324.88,-122.01C2324.88,-138.05 2324.88,-159 2324.88,-159 2324.88,-159 1688.18,-159 1688.18,-159"/>
<polygon fill="black" stroke="black" points="1688.18,-155.5 1678.18,-159 1688.18,-162.5 1688.18,-155.5"/>
</g>
<!-- NzButtonModule -->
<g id="node8" class="node">
<title>NzButtonModule</title>
<polygon fill="#8dd3c7" stroke="black" points="2270.99,-122 2267.99,-126 2246.99,-126 2243.99,-122 2157.01,-122 2157.01,-86 2270.99,-86 2270.99,-122"/>
<text text-anchor="middle" x="2214" y="-99.8" font-family="Times,serif" font-size="14.00">NzButtonModule</text>
</g>
<!-- NzButtonModule&#45;&gt;NgzorroModule -->
<g id="edge8" class="edge">
<title>NzButtonModule&#45;&gt;NgzorroModule</title>
<path fill="none" stroke="black" d="M2195.38,-122.28C2195.38,-137.95 2195.38,-158 2195.38,-158 2195.38,-158 1688.15,-158 1688.15,-158"/>
<polygon fill="black" stroke="black" points="1688.15,-154.5 1678.15,-158 1688.15,-161.5 1688.15,-154.5"/>
</g>
<!-- NzCheckboxModule -->
<g id="node9" class="node">
<title>NzCheckboxModule</title>
<polygon fill="#8dd3c7" stroke="black" points="2139.14,-122 2136.14,-126 2115.14,-126 2112.14,-122 2006.86,-122 2006.86,-86 2139.14,-86 2139.14,-122"/>
<text text-anchor="middle" x="2073" y="-99.8" font-family="Times,serif" font-size="14.00">NzCheckboxModule</text>
</g>
<!-- NzCheckboxModule&#45;&gt;NgzorroModule -->
<g id="edge9" class="edge">
<title>NzCheckboxModule&#45;&gt;NgzorroModule</title>
<path fill="none" stroke="black" d="M2052.38,-122.19C2052.38,-137.18 2052.38,-156 2052.38,-156 2052.38,-156 1688.26,-156 1688.26,-156"/>
<polygon fill="black" stroke="black" points="1688.26,-152.5 1678.26,-156 1688.26,-159.5 1688.26,-152.5"/>
</g>
<!-- NzGridModule -->
<g id="node10" class="node">
<title>NzGridModule</title>
<polygon fill="#8dd3c7" stroke="black" points="1988.53,-122 1985.53,-126 1964.53,-126 1961.53,-122 1887.47,-122 1887.47,-86 1988.53,-86 1988.53,-122"/>
<text text-anchor="middle" x="1938" y="-99.8" font-family="Times,serif" font-size="14.00">NzGridModule</text>
</g>
<!-- NzGridModule&#45;&gt;NgzorroModule -->
<g id="edge10" class="edge">
<title>NzGridModule&#45;&gt;NgzorroModule</title>
<path fill="none" stroke="black" d="M1915.38,-122.12C1915.38,-136.78 1915.38,-155 1915.38,-155 1915.38,-155 1688.26,-155 1688.26,-155"/>
<polygon fill="black" stroke="black" points="1688.26,-151.5 1678.26,-155 1688.26,-158.5 1688.26,-151.5"/>
</g>
<!-- NzCardModule -->
<g id="node11" class="node">
<title>NzCardModule</title>
<polygon fill="#8dd3c7" stroke="black" points="1869.58,-122 1866.58,-126 1845.58,-126 1842.58,-122 1766.42,-122 1766.42,-86 1869.58,-86 1869.58,-122"/>
<text text-anchor="middle" x="1818" y="-99.8" font-family="Times,serif" font-size="14.00">NzCardModule</text>
</g>
<!-- NzCardModule&#45;&gt;NgzorroModule -->
<g id="edge11" class="edge">
<title>NzCardModule&#45;&gt;NgzorroModule</title>
<path fill="none" stroke="black" d="M1793.38,-122.25C1793.38,-136.18 1793.38,-153 1793.38,-153 1793.38,-153 1688.27,-153 1688.27,-153"/>
<polygon fill="black" stroke="black" points="1688.27,-149.5 1678.27,-153 1688.27,-156.5 1688.27,-149.5"/>
</g>
<!-- NzDropDownModule -->
<g id="node12" class="node">
<title>NzDropDownModule</title>
<polygon fill="#8dd3c7" stroke="black" points="1748.35,-122 1745.35,-126 1724.35,-126 1721.35,-122 1609.65,-122 1609.65,-86 1748.35,-86 1748.35,-122"/>
<text text-anchor="middle" x="1679" y="-99.8" font-family="Times,serif" font-size="14.00">NzDropDownModule</text>
</g>
<!-- NzDropDownModule&#45;&gt;NgzorroModule -->
<g id="edge12" class="edge">
<title>NzDropDownModule&#45;&gt;NgzorroModule</title>
<path fill="none" stroke="black" d="M1643.84,-122.11C1643.84,-122.11 1643.84,-140.99 1643.84,-140.99"/>
<polygon fill="black" stroke="black" points="1640.34,-140.99 1643.84,-150.99 1647.34,-140.99 1640.34,-140.99"/>
</g>
<!-- NzBadgeModule -->
<g id="node13" class="node">
<title>NzBadgeModule</title>
<polygon fill="#8dd3c7" stroke="black" points="1591.64,-122 1588.64,-126 1567.64,-126 1564.64,-122 1480.36,-122 1480.36,-86 1591.64,-86 1591.64,-122"/>
<text text-anchor="middle" x="1536" y="-99.8" font-family="Times,serif" font-size="14.00">NzBadgeModule</text>
</g>
<!-- NzBadgeModule&#45;&gt;NgzorroModule -->
<g id="edge13" class="edge">
<title>NzBadgeModule&#45;&gt;NgzorroModule</title>
<path fill="none" stroke="black" d="M1581.86,-122.11C1581.86,-122.11 1581.86,-140.99 1581.86,-140.99"/>
<polygon fill="black" stroke="black" points="1578.36,-140.99 1581.86,-150.99 1585.36,-140.99 1578.36,-140.99"/>
</g>
<!-- NzAlertModule -->
<g id="node14" class="node">
<title>NzAlertModule</title>
<polygon fill="#8dd3c7" stroke="black" points="1462.13,-122 1459.13,-126 1438.13,-126 1435.13,-122 1357.87,-122 1357.87,-86 1462.13,-86 1462.13,-122"/>
<text text-anchor="middle" x="1410" y="-99.8" font-family="Times,serif" font-size="14.00">NzAlertModule</text>
</g>
<!-- NzAlertModule&#45;&gt;NgzorroModule -->
<g id="edge14" class="edge">
<title>NzAlertModule&#45;&gt;NgzorroModule</title>
<path fill="none" stroke="black" d="M1441.37,-122.25C1441.37,-136.18 1441.37,-153 1441.37,-153 1441.37,-153 1561.89,-153 1561.89,-153"/>
<polygon fill="black" stroke="black" points="1561.89,-156.5 1571.89,-153 1561.89,-149.5 1561.89,-156.5"/>
</g>
<!-- NzTableModule -->
<g id="node15" class="node">
<title>NzTableModule</title>
<polygon fill="#8dd3c7" stroke="black" points="1339.74,-122 1336.74,-126 1315.74,-126 1312.74,-122 1232.26,-122 1232.26,-86 1339.74,-86 1339.74,-122"/>
<text text-anchor="middle" x="1286" y="-99.8" font-family="Times,serif" font-size="14.00">NzTableModule</text>
</g>
<!-- NzTableModule&#45;&gt;NgzorroModule -->
<g id="edge15" class="edge">
<title>NzTableModule&#45;&gt;NgzorroModule</title>
<path fill="none" stroke="black" d="M1316.9,-122.12C1316.9,-136.78 1316.9,-155 1316.9,-155 1316.9,-155 1561.69,-155 1561.69,-155"/>
<polygon fill="black" stroke="black" points="1561.69,-158.5 1571.69,-155 1561.69,-151.5 1561.69,-158.5"/>
</g>
<!-- NzPopconfirmModule -->
<g id="node16" class="node">
<title>NzPopconfirmModule</title>
<polygon fill="#8dd3c7" stroke="black" points="1213.97,-122 1210.97,-126 1189.97,-126 1186.97,-122 1072.03,-122 1072.03,-86 1213.97,-86 1213.97,-122"/>
<text text-anchor="middle" x="1143" y="-99.8" font-family="Times,serif" font-size="14.00">NzPopconfirmModule</text>
</g>
<!-- NzPopconfirmModule&#45;&gt;NgzorroModule -->
<g id="edge16" class="edge">
<title>NzPopconfirmModule&#45;&gt;NgzorroModule</title>
<path fill="none" stroke="black" d="M1189.18,-122.19C1189.18,-137.18 1189.18,-156 1189.18,-156 1189.18,-156 1561.56,-156 1561.56,-156"/>
<polygon fill="black" stroke="black" points="1561.56,-159.5 1571.56,-156 1561.56,-152.5 1561.56,-159.5"/>
</g>
<!-- NzNotificationModule -->
<g id="node17" class="node">
<title>NzNotificationModule</title>
<polygon fill="#8dd3c7" stroke="black" points="1053.52,-122 1050.52,-126 1029.52,-126 1026.52,-122 910.48,-122 910.48,-86 1053.52,-86 1053.52,-122"/>
<text text-anchor="middle" x="982" y="-99.8" font-family="Times,serif" font-size="14.00">NzNotificationModule</text>
</g>
<!-- NzNotificationModule&#45;&gt;NgzorroModule -->
<g id="edge17" class="edge">
<title>NzNotificationModule&#45;&gt;NgzorroModule</title>
<path fill="none" stroke="black" d="M1027.51,-122.28C1027.51,-137.95 1027.51,-158 1027.51,-158 1027.51,-158 1561.71,-158 1561.71,-158"/>
<polygon fill="black" stroke="black" points="1561.71,-161.5 1571.71,-158 1561.71,-154.5 1561.71,-161.5"/>
</g>
<!-- NzSpaceModule -->
<g id="node18" class="node">
<title>NzSpaceModule</title>
<polygon fill="#8dd3c7" stroke="black" points="892.8,-122 889.8,-126 868.8,-126 865.8,-122 783.2,-122 783.2,-86 892.8,-86 892.8,-122"/>
<text text-anchor="middle" x="838" y="-99.8" font-family="Times,serif" font-size="14.00">NzSpaceModule</text>
</g>
<!-- NzSpaceModule&#45;&gt;NgzorroModule -->
<g id="edge18" class="edge">
<title>NzSpaceModule&#45;&gt;NgzorroModule</title>
<path fill="none" stroke="black" d="M881.62,-122.01C881.62,-138.05 881.62,-159 881.62,-159 881.62,-159 1561.84,-159 1561.84,-159"/>
<polygon fill="black" stroke="black" points="1561.84,-162.5 1571.84,-159 1561.84,-155.5 1561.84,-162.5"/>
</g>
<!-- NzTabsModule -->
<g id="node19" class="node">
<title>NzTabsModule</title>
<polygon fill="#8dd3c7" stroke="black" points="765.58,-122 762.58,-126 741.58,-126 738.58,-122 662.42,-122 662.42,-86 765.58,-86 765.58,-122"/>
<text text-anchor="middle" x="714" y="-99.8" font-family="Times,serif" font-size="14.00">NzTabsModule</text>
</g>
<!-- NzTabsModule&#45;&gt;NgzorroModule -->
<g id="edge19" class="edge">
<title>NzTabsModule&#45;&gt;NgzorroModule</title>
<path fill="none" stroke="black" d="M755.62,-122.04C755.62,-138.73 755.62,-161 755.62,-161 755.62,-161 1561.6,-161 1561.6,-161"/>
<polygon fill="black" stroke="black" points="1561.6,-164.5 1571.6,-161 1561.6,-157.5 1561.6,-164.5"/>
</g>
<!-- NzSelectModule -->
<g id="node20" class="node">
<title>NzSelectModule</title>
<polygon fill="#8dd3c7" stroke="black" points="644.08,-122 641.08,-126 620.08,-126 617.08,-122 533.92,-122 533.92,-86 644.08,-86 644.08,-122"/>
<text text-anchor="middle" x="589" y="-99.8" font-family="Times,serif" font-size="14.00">NzSelectModule</text>
</g>
<!-- NzSelectModule&#45;&gt;NgzorroModule -->
<g id="edge20" class="edge">
<title>NzSelectModule&#45;&gt;NgzorroModule</title>
<path fill="none" stroke="black" d="M612.26,-122.03C612.26,-139.06 612.26,-162 612.26,-162 612.26,-162 1561.62,-162 1561.62,-162"/>
<polygon fill="black" stroke="black" points="1561.62,-165.5 1571.62,-162 1561.62,-158.5 1561.62,-165.5"/>
</g>
<!-- NzSkeletonModule -->
<g id="node21" class="node">
<title>NzSkeletonModule</title>
<polygon fill="#8dd3c7" stroke="black" points="516.36,-122 513.36,-126 492.36,-126 489.36,-122 391.64,-122 391.64,-86 516.36,-86 516.36,-122"/>
<text text-anchor="middle" x="454" y="-99.8" font-family="Times,serif" font-size="14.00">NzSkeletonModule</text>
</g>
<!-- NzSkeletonModule&#45;&gt;NgzorroModule -->
<g id="edge21" class="edge">
<title>NzSkeletonModule&#45;&gt;NgzorroModule</title>
<path fill="none" stroke="black" d="M482.82,-122C482.82,-139.68 482.82,-164 482.82,-164 482.82,-164 1561.82,-164 1561.82,-164"/>
<polygon fill="black" stroke="black" points="1561.82,-167.5 1571.82,-164 1561.82,-160.5 1561.82,-167.5"/>
</g>
<!-- NzResultModule -->
<g id="node22" class="node">
<title>NzResultModule</title>
<polygon fill="#8dd3c7" stroke="black" points="373.65,-122 370.65,-126 349.65,-126 346.65,-122 262.35,-122 262.35,-86 373.65,-86 373.65,-122"/>
<text text-anchor="middle" x="318" y="-99.8" font-family="Times,serif" font-size="14.00">NzResultModule</text>
</g>
<!-- NzResultModule&#45;&gt;NgzorroModule -->
<g id="edge22" class="edge">
<title>NzResultModule&#45;&gt;NgzorroModule</title>
<path fill="none" stroke="black" d="M345.12,-122.27C345.12,-140.56 345.12,-166 345.12,-166 345.12,-166 1561.63,-166 1561.63,-166"/>
<polygon fill="black" stroke="black" points="1561.63,-169.5 1571.63,-166 1561.63,-162.5 1561.63,-169.5"/>
</g>
<!-- NzSpinModule -->
<g id="node23" class="node">
<title>NzSpinModule</title>
<polygon fill="#8dd3c7" stroke="black" points="243.55,-122 240.55,-126 219.55,-126 216.55,-122 142.45,-122 142.45,-86 243.55,-86 243.55,-122"/>
<text text-anchor="middle" x="193" y="-99.8" font-family="Times,serif" font-size="14.00">NzSpinModule</text>
</g>
<!-- NzSpinModule&#45;&gt;NgzorroModule -->
<g id="edge23" class="edge">
<title>NzSpinModule&#45;&gt;NgzorroModule</title>
<path fill="none" stroke="black" d="M218.62,-122.22C218.62,-140.83 218.62,-167 218.62,-167 218.62,-167 1561.59,-167 1561.59,-167"/>
<polygon fill="black" stroke="black" points="1561.59,-170.5 1571.59,-167 1561.59,-163.5 1561.59,-170.5"/>
</g>
<!-- NzIconModule -->
<g id="node24" class="node">
<title>NzIconModule</title>
<polygon fill="#8dd3c7" stroke="black" points="124.25,-122 121.25,-126 100.25,-126 97.25,-122 23.75,-122 23.75,-86 124.25,-86 124.25,-122"/>
<text text-anchor="middle" x="74" y="-99.8" font-family="Times,serif" font-size="14.00">NzIconModule</text>
</g>
<!-- NzIconModule&#45;&gt;NgzorroModule -->
<g id="edge24" class="edge">
<title>NzIconModule&#45;&gt;NgzorroModule</title>
<path fill="none" stroke="black" d="M85.6,-122.11C85.6,-141.34 85.6,-169 85.6,-169 85.6,-169 1561.56,-169 1561.56,-169"/>
<polygon fill="black" stroke="black" points="1561.56,-172.5 1571.56,-169 1561.56,-165.5 1561.56,-172.5"/>
</g>
<!-- NzMenuModule  -->
<g id="node26" class="node">
<title>NzMenuModule </title>
<polygon fill="#fb8072" stroke="black" points="3183.03,-252 3070.97,-252 3070.97,-216 3183.03,-216 3183.03,-252"/>
<text text-anchor="middle" x="3127" y="-229.8" font-family="Times,serif" font-size="14.00">NzMenuModule </text>
</g>
<!-- NgzorroModule&#45;&gt;NzMenuModule  -->
<g id="edge25" class="edge">
<title>NgzorroModule&#45;&gt;NzMenuModule </title>
<path fill="none" stroke="black" stroke-dasharray="5,2" d="M1678.3,-170C1941.1,-170 3086.22,-170 3086.22,-170 3086.22,-170 3086.22,-205.83 3086.22,-205.83"/>
<polygon fill="black" stroke="black" points="3082.72,-205.83 3086.22,-215.83 3089.72,-205.83 3082.72,-205.83"/>
</g>
<!-- NzLayoutModule  -->
<g id="node27" class="node">
<title>NzLayoutModule </title>
<polygon fill="#fb8072" stroke="black" points="3052.53,-252 2933.47,-252 2933.47,-216 3052.53,-216 3052.53,-252"/>
<text text-anchor="middle" x="2993" y="-229.8" font-family="Times,serif" font-size="14.00">NzLayoutModule </text>
</g>
<!-- NgzorroModule&#45;&gt;NzLayoutModule  -->
<g id="edge26" class="edge">
<title>NgzorroModule&#45;&gt;NzLayoutModule </title>
<path fill="none" stroke="black" stroke-dasharray="5,2" d="M1678.26,-172C1924.68,-172 2942.12,-172 2942.12,-172 2942.12,-172 2942.12,-205.73 2942.12,-205.73"/>
<polygon fill="black" stroke="black" points="2938.63,-205.73 2942.12,-215.73 2945.63,-205.73 2938.63,-205.73"/>
</g>
<!-- NzBreadCrumbModule  -->
<g id="node28" class="node">
<title>NzBreadCrumbModule </title>
<polygon fill="#fb8072" stroke="black" points="2915.69,-252 2764.31,-252 2764.31,-216 2915.69,-216 2915.69,-252"/>
<text text-anchor="middle" x="2840" y="-229.8" font-family="Times,serif" font-size="14.00">NzBreadCrumbModule </text>
</g>
<!-- NgzorroModule&#45;&gt;NzBreadCrumbModule  -->
<g id="edge27" class="edge">
<title>NgzorroModule&#45;&gt;NzBreadCrumbModule </title>
<path fill="none" stroke="black" stroke-dasharray="5,2" d="M1678.11,-173C1906.14,-173 2790.62,-173 2790.62,-173 2790.62,-173 2790.62,-205.7 2790.62,-205.7"/>
<polygon fill="black" stroke="black" points="2787.13,-205.7 2790.62,-215.7 2794.13,-205.7 2787.13,-205.7"/>
</g>
<!-- NzAvatarModule  -->
<g id="node29" class="node">
<title>NzAvatarModule </title>
<polygon fill="#fb8072" stroke="black" points="2745.96,-252 2628.04,-252 2628.04,-216 2745.96,-216 2745.96,-252"/>
<text text-anchor="middle" x="2687" y="-229.8" font-family="Times,serif" font-size="14.00">NzAvatarModule </text>
</g>
<!-- NgzorroModule&#45;&gt;NzAvatarModule  -->
<g id="edge28" class="edge">
<title>NgzorroModule&#45;&gt;NzAvatarModule </title>
<path fill="none" stroke="black" stroke-dasharray="5,2" d="M1678.12,-175C1886.89,-175 2639.62,-175 2639.62,-175 2639.62,-175 2639.62,-205.98 2639.62,-205.98"/>
<polygon fill="black" stroke="black" points="2636.13,-205.98 2639.62,-215.98 2643.13,-205.98 2636.13,-205.98"/>
</g>
<!-- NzIconModule  -->
<g id="node30" class="node">
<title>NzIconModule </title>
<polygon fill="#fb8072" stroke="black" points="2610.25,-252 2505.75,-252 2505.75,-216 2610.25,-216 2610.25,-252"/>
<text text-anchor="middle" x="2558" y="-229.8" font-family="Times,serif" font-size="14.00">NzIconModule </text>
</g>
<!-- NgzorroModule&#45;&gt;NzIconModule  -->
<g id="edge29" class="edge">
<title>NgzorroModule&#45;&gt;NzIconModule </title>
<path fill="none" stroke="black" stroke-dasharray="5,2" d="M1678.19,-177C1869.66,-177 2512.49,-177 2512.49,-177 2512.49,-177 2512.49,-205.96 2512.49,-205.96"/>
<polygon fill="black" stroke="black" points="2508.99,-205.96 2512.49,-215.96 2515.99,-205.96 2508.99,-205.96"/>
</g>
<!-- NzFormModule  -->
<g id="node31" class="node">
<title>NzFormModule </title>
<polygon fill="#fb8072" stroke="black" points="2487.71,-252 2378.29,-252 2378.29,-216 2487.71,-216 2487.71,-252"/>
<text text-anchor="middle" x="2433" y="-229.8" font-family="Times,serif" font-size="14.00">NzFormModule </text>
</g>
<!-- NgzorroModule&#45;&gt;NzFormModule  -->
<g id="edge30" class="edge">
<title>NgzorroModule&#45;&gt;NzFormModule </title>
<path fill="none" stroke="black" stroke-dasharray="5,2" d="M1678.24,-178C1851.24,-178 2386.43,-178 2386.43,-178 2386.43,-178 2386.43,-205.97 2386.43,-205.97"/>
<polygon fill="black" stroke="black" points="2382.93,-205.97 2386.43,-215.97 2389.93,-205.97 2382.93,-205.97"/>
</g>
<!-- NzInputModule  -->
<g id="node32" class="node">
<title>NzInputModule </title>
<polygon fill="#fb8072" stroke="black" points="2360.42,-252 2251.58,-252 2251.58,-216 2360.42,-216 2360.42,-252"/>
<text text-anchor="middle" x="2306" y="-229.8" font-family="Times,serif" font-size="14.00">NzInputModule </text>
</g>
<!-- NgzorroModule&#45;&gt;NzInputModule  -->
<g id="edge31" class="edge">
<title>NgzorroModule&#45;&gt;NzInputModule </title>
<path fill="none" stroke="black" stroke-dasharray="5,2" d="M1678.15,-180C1831.07,-180 2261.27,-180 2261.27,-180 2261.27,-180 2261.27,-205.72 2261.27,-205.72"/>
<polygon fill="black" stroke="black" points="2257.77,-205.72 2261.27,-215.72 2264.77,-205.72 2257.77,-205.72"/>
</g>
<!-- NzButtonModule  -->
<g id="node33" class="node">
<title>NzButtonModule </title>
<polygon fill="#fb8072" stroke="black" points="2233.99,-252 2116.01,-252 2116.01,-216 2233.99,-216 2233.99,-252"/>
<text text-anchor="middle" x="2175" y="-229.8" font-family="Times,serif" font-size="14.00">NzButtonModule </text>
</g>
<!-- NgzorroModule&#45;&gt;NzButtonModule  -->
<g id="edge32" class="edge">
<title>NgzorroModule&#45;&gt;NzButtonModule </title>
<path fill="none" stroke="black" stroke-dasharray="5,2" d="M1678.33,-181C1807.73,-181 2127.79,-181 2127.79,-181 2127.79,-181 2127.79,-205.76 2127.79,-205.76"/>
<polygon fill="black" stroke="black" points="2124.29,-205.76 2127.79,-215.76 2131.29,-205.76 2124.29,-205.76"/>
</g>
<!-- NzCheckboxModule  -->
<g id="node34" class="node">
<title>NzCheckboxModule </title>
<polygon fill="#fb8072" stroke="black" points="2098.14,-252 1961.86,-252 1961.86,-216 2098.14,-216 2098.14,-252"/>
<text text-anchor="middle" x="2030" y="-229.8" font-family="Times,serif" font-size="14.00">NzCheckboxModule </text>
</g>
<!-- NgzorroModule&#45;&gt;NzCheckboxModule  -->
<g id="edge33" class="edge">
<title>NgzorroModule&#45;&gt;NzCheckboxModule </title>
<path fill="none" stroke="black" stroke-dasharray="5,2" d="M1678.21,-183C1776.22,-183 1975.35,-183 1975.35,-183 1975.35,-183 1975.35,-205.88 1975.35,-205.88"/>
<polygon fill="black" stroke="black" points="1971.85,-205.88 1975.35,-215.88 1978.85,-205.88 1971.85,-205.88"/>
</g>
<!-- NzGridModule  -->
<g id="node35" class="node">
<title>NzGridModule </title>
<polygon fill="#fb8072" stroke="black" points="1943.53,-252 1838.47,-252 1838.47,-216 1943.53,-216 1943.53,-252"/>
<text text-anchor="middle" x="1891" y="-229.8" font-family="Times,serif" font-size="14.00">NzGridModule </text>
</g>
<!-- NgzorroModule&#45;&gt;NzGridModule  -->
<g id="edge34" class="edge">
<title>NgzorroModule&#45;&gt;NzGridModule </title>
<path fill="none" stroke="black" stroke-dasharray="5,2" d="M1678.12,-184C1745.77,-184 1854.01,-184 1854.01,-184 1854.01,-184 1854.01,-205.95 1854.01,-205.95"/>
<polygon fill="black" stroke="black" points="1850.51,-205.95 1854.01,-215.95 1857.51,-205.95 1850.51,-205.95"/>
</g>
<!-- NzCardModule  -->
<g id="node36" class="node">
<title>NzCardModule </title>
<polygon fill="#fb8072" stroke="black" points="1820.08,-252 1713.92,-252 1713.92,-216 1820.08,-216 1820.08,-252"/>
<text text-anchor="middle" x="1767" y="-229.8" font-family="Times,serif" font-size="14.00">NzCardModule </text>
</g>
<!-- NgzorroModule&#45;&gt;NzCardModule  -->
<g id="edge35" class="edge">
<title>NgzorroModule&#45;&gt;NzCardModule </title>
<path fill="none" stroke="black" stroke-dasharray="5,2" d="M1678.34,-186C1704.76,-186 1731.07,-186 1731.07,-186 1731.07,-186 1731.07,-205.85 1731.07,-205.85"/>
<polygon fill="black" stroke="black" points="1727.57,-205.85 1731.07,-215.85 1734.57,-205.85 1727.57,-205.85"/>
</g>
<!-- NzDropDownModule  -->
<g id="node37" class="node">
<title>NzDropDownModule </title>
<polygon fill="#fb8072" stroke="black" points="1696.35,-252 1553.65,-252 1553.65,-216 1696.35,-216 1696.35,-252"/>
<text text-anchor="middle" x="1625" y="-229.8" font-family="Times,serif" font-size="14.00">NzDropDownModule </text>
</g>
<!-- NgzorroModule&#45;&gt;NzDropDownModule  -->
<g id="edge36" class="edge">
<title>NgzorroModule&#45;&gt;NzDropDownModule </title>
<path fill="none" stroke="black" stroke-dasharray="5,2" d="M1625,-187.11C1625,-187.11 1625,-205.99 1625,-205.99"/>
<polygon fill="black" stroke="black" points="1621.5,-205.99 1625,-215.99 1628.5,-205.99 1621.5,-205.99"/>
</g>
<!-- NzBadgeModule  -->
<g id="node38" class="node">
<title>NzBadgeModule </title>
<polygon fill="#fb8072" stroke="black" points="1535.64,-252 1420.36,-252 1420.36,-216 1535.64,-216 1535.64,-252"/>
<text text-anchor="middle" x="1478" y="-229.8" font-family="Times,serif" font-size="14.00">NzBadgeModule </text>
</g>
<!-- NgzorroModule&#45;&gt;NzBadgeModule  -->
<g id="edge37" class="edge">
<title>NgzorroModule&#45;&gt;NzBadgeModule </title>
<path fill="none" stroke="black" stroke-dasharray="5,2" d="M1571.58,-186C1540.69,-186 1507.88,-186 1507.88,-186 1507.88,-186 1507.88,-205.85 1507.88,-205.85"/>
<polygon fill="black" stroke="black" points="1504.38,-205.85 1507.88,-215.85 1511.38,-205.85 1504.38,-205.85"/>
</g>
<!-- NzAlertModule  -->
<g id="node39" class="node">
<title>NzAlertModule </title>
<polygon fill="#fb8072" stroke="black" points="1402.13,-252 1293.87,-252 1293.87,-216 1402.13,-216 1402.13,-252"/>
<text text-anchor="middle" x="1348" y="-229.8" font-family="Times,serif" font-size="14.00">NzAlertModule </text>
</g>
<!-- NgzorroModule&#45;&gt;NzAlertModule  -->
<g id="edge38" class="edge">
<title>NgzorroModule&#45;&gt;NzAlertModule </title>
<path fill="none" stroke="black" stroke-dasharray="5,2" d="M1571.81,-184C1499.72,-184 1379.88,-184 1379.88,-184 1379.88,-184 1379.88,-205.95 1379.88,-205.95"/>
<polygon fill="black" stroke="black" points="1376.38,-205.95 1379.88,-215.95 1383.38,-205.95 1376.38,-205.95"/>
</g>
<!-- NzTableModule  -->
<g id="node40" class="node">
<title>NzTableModule </title>
<polygon fill="#fb8072" stroke="black" points="1275.74,-252 1164.26,-252 1164.26,-216 1275.74,-216 1275.74,-252"/>
<text text-anchor="middle" x="1220" y="-229.8" font-family="Times,serif" font-size="14.00">NzTableModule </text>
</g>
<!-- NgzorroModule&#45;&gt;NzTableModule  -->
<g id="edge39" class="edge">
<title>NgzorroModule&#45;&gt;NzTableModule </title>
<path fill="none" stroke="black" stroke-dasharray="5,2" d="M1571.83,-183C1469.21,-183 1253.88,-183 1253.88,-183 1253.88,-183 1253.88,-205.88 1253.88,-205.88"/>
<polygon fill="black" stroke="black" points="1250.38,-205.88 1253.88,-215.88 1257.38,-205.88 1250.38,-205.88"/>
</g>
<!-- NzPopconfirmModule  -->
<g id="node41" class="node">
<title>NzPopconfirmModule </title>
<polygon fill="#fb8072" stroke="black" points="1146.97,-252 1001.03,-252 1001.03,-216 1146.97,-216 1146.97,-252"/>
<text text-anchor="middle" x="1074" y="-229.8" font-family="Times,serif" font-size="14.00">NzPopconfirmModule </text>
</g>
<!-- NgzorroModule&#45;&gt;NzPopconfirmModule  -->
<g id="edge40" class="edge">
<title>NgzorroModule&#45;&gt;NzPopconfirmModule </title>
<path fill="none" stroke="black" stroke-dasharray="5,2" d="M1571.76,-181C1440.02,-181 1109.38,-181 1109.38,-181 1109.38,-181 1109.38,-205.76 1109.38,-205.76"/>
<polygon fill="black" stroke="black" points="1105.88,-205.76 1109.38,-215.76 1112.88,-205.76 1105.88,-205.76"/>
</g>
<!-- NzSpaceModule  -->
<g id="node42" class="node">
<title>NzSpaceModule </title>
<polygon fill="#fb8072" stroke="black" points="983.3,-252 870.7,-252 870.7,-216 983.3,-216 983.3,-252"/>
<text text-anchor="middle" x="927" y="-229.8" font-family="Times,serif" font-size="14.00">NzSpaceModule </text>
</g>
<!-- NgzorroModule&#45;&gt;NzSpaceModule  -->
<g id="edge41" class="edge">
<title>NgzorroModule&#45;&gt;NzSpaceModule </title>
<path fill="none" stroke="black" stroke-dasharray="5,2" d="M1571.78,-180C1411.91,-180 946.82,-180 946.82,-180 946.82,-180 946.82,-205.72 946.82,-205.72"/>
<polygon fill="black" stroke="black" points="943.32,-205.72 946.82,-215.72 950.32,-205.72 943.32,-205.72"/>
</g>
<!-- NzTabsModule  -->
<g id="node43" class="node">
<title>NzTabsModule </title>
<polygon fill="#fb8072" stroke="black" points="852.08,-252 745.92,-252 745.92,-216 852.08,-216 852.08,-252"/>
<text text-anchor="middle" x="799" y="-229.8" font-family="Times,serif" font-size="14.00">NzTabsModule </text>
</g>
<!-- NgzorroModule&#45;&gt;NzTabsModule  -->
<g id="edge42" class="edge">
<title>NgzorroModule&#45;&gt;NzTabsModule </title>
<path fill="none" stroke="black" stroke-dasharray="5,2" d="M1571.73,-178C1391.8,-178 817.82,-178 817.82,-178 817.82,-178 817.82,-205.97 817.82,-205.97"/>
<polygon fill="black" stroke="black" points="814.32,-205.97 817.82,-215.97 821.32,-205.97 814.32,-205.97"/>
</g>
<!-- NzNotificationModule  -->
<g id="node44" class="node">
<title>NzNotificationModule </title>
<polygon fill="#fb8072" stroke="black" points="727.52,-252 580.48,-252 580.48,-216 727.52,-216 727.52,-252"/>
<text text-anchor="middle" x="654" y="-229.8" font-family="Times,serif" font-size="14.00">NzNotificationModule </text>
</g>
<!-- NgzorroModule&#45;&gt;NzNotificationModule  -->
<g id="edge43" class="edge">
<title>NgzorroModule&#45;&gt;NzNotificationModule </title>
<path fill="none" stroke="black" stroke-dasharray="5,2" d="M1571.66,-177C1374.04,-177 694.98,-177 694.98,-177 694.98,-177 694.98,-205.96 694.98,-205.96"/>
<polygon fill="black" stroke="black" points="691.48,-205.96 694.98,-215.96 698.48,-205.96 691.48,-205.96"/>
</g>
<!-- NzSelectModule  -->
<g id="node45" class="node">
<title>NzSelectModule </title>
<polygon fill="#fb8072" stroke="black" points="562.58,-252 449.42,-252 449.42,-216 562.58,-216 562.58,-252"/>
<text text-anchor="middle" x="506" y="-229.8" font-family="Times,serif" font-size="14.00">NzSelectModule </text>
</g>
<!-- NgzorroModule&#45;&gt;NzSelectModule  -->
<g id="edge44" class="edge">
<title>NgzorroModule&#45;&gt;NzSelectModule </title>
<path fill="none" stroke="black" stroke-dasharray="5,2" d="M1571.61,-175C1354.37,-175 548.38,-175 548.38,-175 548.38,-175 548.38,-205.98 548.38,-205.98"/>
<polygon fill="black" stroke="black" points="544.88,-205.98 548.38,-215.98 551.88,-205.98 544.88,-205.98"/>
</g>
<!-- NzResultModule  -->
<g id="node46" class="node">
<title>NzResultModule </title>
<polygon fill="#fb8072" stroke="black" points="431.65,-252 316.35,-252 316.35,-216 431.65,-216 431.65,-252"/>
<text text-anchor="middle" x="374" y="-229.8" font-family="Times,serif" font-size="14.00">NzResultModule </text>
</g>
<!-- NgzorroModule&#45;&gt;NzResultModule  -->
<g id="edge45" class="edge">
<title>NgzorroModule&#45;&gt;NzResultModule </title>
<path fill="none" stroke="black" stroke-dasharray="5,2" d="M1571.69,-173C1337.49,-173 411.57,-173 411.57,-173 411.57,-173 411.57,-205.7 411.57,-205.7"/>
<polygon fill="black" stroke="black" points="408.07,-205.7 411.57,-215.7 415.07,-205.7 408.07,-205.7"/>
</g>
<!-- NzSpinModule  -->
<g id="node47" class="node">
<title>NzSpinModule </title>
<polygon fill="#fb8072" stroke="black" points="298.54,-252 193.46,-252 193.46,-216 298.54,-216 298.54,-252"/>
<text text-anchor="middle" x="246" y="-229.8" font-family="Times,serif" font-size="14.00">NzSpinModule </text>
</g>
<!-- NgzorroModule&#45;&gt;NzSpinModule  -->
<g id="edge46" class="edge">
<title>NgzorroModule&#45;&gt;NzSpinModule </title>
<path fill="none" stroke="black" stroke-dasharray="5,2" d="M1571.87,-172C1322.53,-172 280.35,-172 280.35,-172 280.35,-172 280.35,-205.73 280.35,-205.73"/>
<polygon fill="black" stroke="black" points="276.85,-205.73 280.35,-215.73 283.85,-205.73 276.85,-205.73"/>
</g>
<!-- NzSkeletonModule  -->
<g id="node48" class="node">
<title>NzSkeletonModule </title>
<polygon fill="#fb8072" stroke="black" points="175.36,-252 46.64,-252 46.64,-216 175.36,-216 175.36,-252"/>
<text text-anchor="middle" x="111" y="-229.8" font-family="Times,serif" font-size="14.00">NzSkeletonModule </text>
</g>
<!-- NgzorroModule&#45;&gt;NzSkeletonModule  -->
<g id="edge47" class="edge">
<title>NgzorroModule&#45;&gt;NzSkeletonModule </title>
<path fill="none" stroke="black" stroke-dasharray="5,2" d="M1571.51,-170C1307.8,-170 158.7,-170 158.7,-170 158.7,-170 158.7,-205.83 158.7,-205.83"/>
<polygon fill="black" stroke="black" points="155.21,-205.83 158.7,-215.83 162.21,-205.83 155.21,-205.83"/>
</g>
</g>
</svg>
