<?xml version="1.0" encoding="UTF-8" standalone="no"?>
<!DOCTYPE svg PUBLIC "-//W3C//DTD SVG 1.1//EN"
 "http://www.w3.org/Graphics/SVG/1.1/DTD/svg11.dtd">
<!-- Generated by graphviz version 2.46.0 (20210119.1425)
 -->
<!-- Title: dependencies Pages: 1 -->
<svg width="3805pt" height="284pt"
 viewBox="0.00 0.00 3805.00 284.00" xmlns="http://www.w3.org/2000/svg" xmlns:xlink="http://www.w3.org/1999/xlink">
<g id="graph0" class="graph" transform="scale(1 1) rotate(0) translate(4 280)">
<title>dependencies</title>
<polygon fill="white" stroke="transparent" points="-4,4 -4,-280 3801,-280 3801,4 -4,4"/>
<text text-anchor="start" x="1877.51" y="-42.4" font-family="sans-serif" font-weight="bold" font-size="14.00">Legend</text>
<polygon fill="#ffffb3" stroke="transparent" points="1664.5,-10 1664.5,-30 1684.5,-30 1684.5,-10 1664.5,-10"/>
<text text-anchor="start" x="1688.13" y="-15.4" font-family="sans-serif" font-size="14.00"> &#160;Declarations</text>
<polygon fill="#8dd3c7" stroke="transparent" points="1777.5,-10 1777.5,-30 1797.5,-30 1797.5,-10 1777.5,-10"/>
<text text-anchor="start" x="1801.23" y="-15.4" font-family="sans-serif" font-size="14.00"> &#160;Module</text>
<polygon fill="#80b1d3" stroke="transparent" points="1863.5,-10 1863.5,-30 1883.5,-30 1883.5,-10 1863.5,-10"/>
<text text-anchor="start" x="1887.28" y="-15.4" font-family="sans-serif" font-size="14.00"> &#160;Bootstrap</text>
<polygon fill="#fdb462" stroke="transparent" points="1960.5,-10 1960.5,-30 1980.5,-30 1980.5,-10 1960.5,-10"/>
<text text-anchor="start" x="1984.17" y="-15.4" font-family="sans-serif" font-size="14.00"> &#160;Providers</text>
<polygon fill="#fb8072" stroke="transparent" points="2056.5,-10 2056.5,-30 2076.5,-30 2076.5,-10 2056.5,-10"/>
<text text-anchor="start" x="2080.23" y="-15.4" font-family="sans-serif" font-size="14.00"> &#160;Exports</text>
<g id="clust1" class="cluster">
<title>cluster_NgzorroModule</title>
<polygon fill="none" stroke="black" stroke-dasharray="1,5" points="8,-70 8,-268 3789,-268 3789,-70 8,-70"/>
</g>
<g id="clust4" class="cluster">
<title>cluster_NgzorroModule_exports</title>
<polygon fill="none" stroke="black" points="33,-208 33,-260 3764,-260 3764,-208 33,-208"/>
</g>
<g id="clust3" class="cluster">
<title>cluster_NgzorroModule_imports</title>
<polygon fill="none" stroke="black" points="16,-78 16,-130 3781,-130 3781,-78 16,-78"/>
</g>
<!-- CommonModule -->
<g id="node1" class="node">
<title>CommonModule</title>
<polygon fill="#8dd3c7" stroke="black" points="3772.67,-122 3769.67,-126 3748.67,-126 3745.67,-122 3661.33,-122 3661.33,-86 3772.67,-86 3772.67,-122"/>
<text text-anchor="middle" x="3717" y="-99.8" font-family="Times,serif" font-size="14.00">CommonModule</text>
</g>
<!-- NgzorroModule -->
<g id="node29" class="node">
<title>NgzorroModule</title>
<polygon fill="#8dd3c7" stroke="black" points="1974.19,-187 1971.19,-191 1950.19,-191 1947.19,-187 1867.81,-187 1867.81,-151 1974.19,-151 1974.19,-187"/>
<text text-anchor="middle" x="1921" y="-164.8" font-family="Times,serif" font-size="14.00">NgzorroModule</text>
</g>
<!-- CommonModule&#45;&gt;NgzorroModule -->
<g id="edge1" class="edge">
<title>CommonModule&#45;&gt;NgzorroModule</title>
<path fill="none" stroke="black" d="M3708.59,-122.11C3708.59,-141.34 3708.59,-169 3708.59,-169 3708.59,-169 1984.5,-169 1984.5,-169"/>
<polygon fill="black" stroke="black" points="1984.5,-165.5 1974.5,-169 1984.5,-172.5 1984.5,-165.5"/>
</g>
<!-- NzMenuModule -->
<g id="node2" class="node">
<title>NzMenuModule</title>
<polygon fill="#8dd3c7" stroke="black" points="3643.03,-122 3640.03,-126 3619.03,-126 3616.03,-122 3534.97,-122 3534.97,-86 3643.03,-86 3643.03,-122"/>
<text text-anchor="middle" x="3589" y="-99.8" font-family="Times,serif" font-size="14.00">NzMenuModule</text>
</g>
<!-- NzMenuModule&#45;&gt;NgzorroModule -->
<g id="edge2" class="edge">
<title>NzMenuModule&#45;&gt;NgzorroModule</title>
<path fill="none" stroke="black" d="M3580.12,-122.22C3580.12,-140.83 3580.12,-167 3580.12,-167 3580.12,-167 1984.32,-167 1984.32,-167"/>
<polygon fill="black" stroke="black" points="1984.32,-163.5 1974.32,-167 1984.32,-170.5 1984.32,-163.5"/>
</g>
<!-- NzLayoutModule -->
<g id="node3" class="node">
<title>NzLayoutModule</title>
<polygon fill="#8dd3c7" stroke="black" points="3516.53,-122 3513.53,-126 3492.53,-126 3489.53,-122 3401.47,-122 3401.47,-86 3516.53,-86 3516.53,-122"/>
<text text-anchor="middle" x="3459" y="-99.8" font-family="Times,serif" font-size="14.00">NzLayoutModule</text>
</g>
<!-- NzLayoutModule&#45;&gt;NgzorroModule -->
<g id="edge3" class="edge">
<title>NzLayoutModule&#45;&gt;NgzorroModule</title>
<path fill="none" stroke="black" d="M3445.04,-122.27C3445.04,-140.56 3445.04,-166 3445.04,-166 3445.04,-166 1984.35,-166 1984.35,-166"/>
<polygon fill="black" stroke="black" points="1984.35,-162.5 1974.35,-166 1984.35,-169.5 1984.35,-162.5"/>
</g>
<!-- NzBreadCrumbModule -->
<g id="node4" class="node">
<title>NzBreadCrumbModule</title>
<polygon fill="#8dd3c7" stroke="black" points="3383.19,-122 3380.19,-126 3359.19,-126 3356.19,-122 3234.81,-122 3234.81,-86 3383.19,-86 3383.19,-122"/>
<text text-anchor="middle" x="3309" y="-99.8" font-family="Times,serif" font-size="14.00">NzBreadCrumbModule</text>
</g>
<!-- NzBreadCrumbModule&#45;&gt;NgzorroModule -->
<g id="edge4" class="edge">
<title>NzBreadCrumbModule&#45;&gt;NgzorroModule</title>
<path fill="none" stroke="black" d="M3276.82,-122.3C3276.82,-140.27 3276.82,-165 3276.82,-165 3276.82,-165 1984.15,-165 1984.15,-165"/>
<polygon fill="black" stroke="black" points="1984.15,-161.5 1974.15,-165 1984.15,-168.5 1984.15,-161.5"/>
</g>
<!-- NzAvatarModule -->
<g id="node5" class="node">
<title>NzAvatarModule</title>
<polygon fill="#8dd3c7" stroke="black" points="3216.96,-122 3213.96,-126 3192.96,-126 3189.96,-122 3103.04,-122 3103.04,-86 3216.96,-86 3216.96,-122"/>
<text text-anchor="middle" x="3160" y="-99.8" font-family="Times,serif" font-size="14.00">NzAvatarModule</text>
</g>
<!-- NzAvatarModule&#45;&gt;NgzorroModule -->
<g id="edge5" class="edge">
<title>NzAvatarModule&#45;&gt;NgzorroModule</title>
<path fill="none" stroke="black" d="M3143.07,-122.02C3143.07,-139.37 3143.07,-163 3143.07,-163 3143.07,-163 1984.3,-163 1984.3,-163"/>
<polygon fill="black" stroke="black" points="1984.3,-159.5 1974.3,-163 1984.3,-166.5 1984.3,-159.5"/>
</g>
<!-- NzFormModule -->
<g id="node6" class="node">
<title>NzFormModule</title>
<polygon fill="#8dd3c7" stroke="black" points="3085.2,-122 3082.2,-126 3061.2,-126 3058.2,-122 2978.8,-122 2978.8,-86 3085.2,-86 3085.2,-122"/>
<text text-anchor="middle" x="3032" y="-99.8" font-family="Times,serif" font-size="14.00">NzFormModule</text>
</g>
<!-- NzFormModule&#45;&gt;NgzorroModule -->
<g id="edge6" class="edge">
<title>NzFormModule&#45;&gt;NgzorroModule</title>
<path fill="none" stroke="black" d="M3019.88,-122.03C3019.88,-139.06 3019.88,-162 3019.88,-162 3019.88,-162 1984.37,-162 1984.37,-162"/>
<polygon fill="black" stroke="black" points="1984.37,-158.5 1974.37,-162 1984.37,-165.5 1984.37,-158.5"/>
</g>
<!-- NzInputModule -->
<g id="node7" class="node">
<title>NzInputModule</title>
<polygon fill="#8dd3c7" stroke="black" points="2960.92,-122 2957.92,-126 2936.92,-126 2933.92,-122 2855.08,-122 2855.08,-86 2960.92,-86 2960.92,-122"/>
<text text-anchor="middle" x="2908" y="-99.8" font-family="Times,serif" font-size="14.00">NzInputModule</text>
</g>
<!-- NzInputModule&#45;&gt;NgzorroModule -->
<g id="edge7" class="edge">
<title>NzInputModule&#45;&gt;NgzorroModule</title>
<path fill="none" stroke="black" d="M2894.38,-122.04C2894.38,-138.73 2894.38,-161 2894.38,-161 2894.38,-161 1984.37,-161 1984.37,-161"/>
<polygon fill="black" stroke="black" points="1984.37,-157.5 1974.37,-161 1984.37,-164.5 1984.37,-157.5"/>
</g>
<!-- NzButtonModule -->
<g id="node8" class="node">
<title>NzButtonModule</title>
<polygon fill="#8dd3c7" stroke="black" points="2836.99,-122 2833.99,-126 2812.99,-126 2809.99,-122 2723.01,-122 2723.01,-86 2836.99,-86 2836.99,-122"/>
<text text-anchor="middle" x="2780" y="-99.8" font-family="Times,serif" font-size="14.00">NzButtonModule</text>
</g>
<!-- NzButtonModule&#45;&gt;NgzorroModule -->
<g id="edge8" class="edge">
<title>NzButtonModule&#45;&gt;NgzorroModule</title>
<path fill="none" stroke="black" d="M2764.88,-122.01C2764.88,-138.05 2764.88,-159 2764.88,-159 2764.88,-159 1984.11,-159 1984.11,-159"/>
<polygon fill="black" stroke="black" points="1984.11,-155.5 1974.11,-159 1984.11,-162.5 1984.11,-155.5"/>
</g>
<!-- NzCheckboxModule -->
<g id="node9" class="node">
<title>NzCheckboxModule</title>
<polygon fill="#8dd3c7" stroke="black" points="2705.14,-122 2702.14,-126 2681.14,-126 2678.14,-122 2572.86,-122 2572.86,-86 2705.14,-86 2705.14,-122"/>
<text text-anchor="middle" x="2639" y="-99.8" font-family="Times,serif" font-size="14.00">NzCheckboxModule</text>
</g>
<!-- NzCheckboxModule&#45;&gt;NgzorroModule -->
<g id="edge9" class="edge">
<title>NzCheckboxModule&#45;&gt;NgzorroModule</title>
<path fill="none" stroke="black" d="M2621.88,-122.28C2621.88,-137.95 2621.88,-158 2621.88,-158 2621.88,-158 1984.25,-158 1984.25,-158"/>
<polygon fill="black" stroke="black" points="1984.25,-154.5 1974.25,-158 1984.25,-161.5 1984.25,-154.5"/>
</g>
<!-- NzGridModule -->
<g id="node10" class="node">
<title>NzGridModule</title>
<polygon fill="#8dd3c7" stroke="black" points="2554.53,-122 2551.53,-126 2530.53,-126 2527.53,-122 2453.47,-122 2453.47,-86 2554.53,-86 2554.53,-122"/>
<text text-anchor="middle" x="2504" y="-99.8" font-family="Times,serif" font-size="14.00">NzGridModule</text>
</g>
<!-- NzGridModule&#45;&gt;NgzorroModule -->
<g id="edge10" class="edge">
<title>NzGridModule&#45;&gt;NgzorroModule</title>
<path fill="none" stroke="black" d="M2484.88,-122.24C2484.88,-137.57 2484.88,-157 2484.88,-157 2484.88,-157 1984.3,-157 1984.3,-157"/>
<polygon fill="black" stroke="black" points="1984.3,-153.5 1974.3,-157 1984.3,-160.5 1984.3,-153.5"/>
</g>
<!-- NzCardModule -->
<g id="node11" class="node">
<title>NzCardModule</title>
<polygon fill="#8dd3c7" stroke="black" points="2435.58,-122 2432.58,-126 2411.58,-126 2408.58,-122 2332.42,-122 2332.42,-86 2435.58,-86 2435.58,-122"/>
<text text-anchor="middle" x="2384" y="-99.8" font-family="Times,serif" font-size="14.00">NzCardModule</text>
</g>
<!-- NzCardModule&#45;&gt;NgzorroModule -->
<g id="edge11" class="edge">
<title>NzCardModule&#45;&gt;NgzorroModule</title>
<path fill="none" stroke="black" d="M2362.88,-122.12C2362.88,-136.78 2362.88,-155 2362.88,-155 2362.88,-155 1984.3,-155 1984.3,-155"/>
<polygon fill="black" stroke="black" points="1984.3,-151.5 1974.3,-155 1984.3,-158.5 1984.3,-151.5"/>
</g>
<!-- NzDropDownModule -->
<g id="node12" class="node">
<title>NzDropDownModule</title>
<polygon fill="#8dd3c7" stroke="black" points="2314.35,-122 2311.35,-126 2290.35,-126 2287.35,-122 2175.65,-122 2175.65,-86 2314.35,-86 2314.35,-122"/>
<text text-anchor="middle" x="2245" y="-99.8" font-family="Times,serif" font-size="14.00">NzDropDownModule</text>
</g>
<!-- NzDropDownModule&#45;&gt;NgzorroModule -->
<g id="edge12" class="edge">
<title>NzDropDownModule&#45;&gt;NgzorroModule</title>
<path fill="none" stroke="black" d="M2222.38,-122.05C2222.38,-136.37 2222.38,-154 2222.38,-154 2222.38,-154 1984.19,-154 1984.19,-154"/>
<polygon fill="black" stroke="black" points="1984.19,-150.5 1974.19,-154 1984.19,-157.5 1984.19,-150.5"/>
</g>
<!-- NzBadgeModule -->
<g id="node13" class="node">
<title>NzBadgeModule</title>
<polygon fill="#8dd3c7" stroke="black" points="2157.64,-122 2154.64,-126 2133.64,-126 2130.64,-122 2046.36,-122 2046.36,-86 2157.64,-86 2157.64,-122"/>
<text text-anchor="middle" x="2102" y="-99.8" font-family="Times,serif" font-size="14.00">NzBadgeModule</text>
</g>
<!-- NzBadgeModule&#45;&gt;NgzorroModule -->
<g id="edge13" class="edge">
<title>NzBadgeModule&#45;&gt;NgzorroModule</title>
<path fill="none" stroke="black" d="M2077.38,-122.25C2077.38,-136.18 2077.38,-153 2077.38,-153 2077.38,-153 1984.38,-153 1984.38,-153"/>
<polygon fill="black" stroke="black" points="1984.38,-149.5 1974.38,-153 1984.38,-156.5 1984.38,-149.5"/>
</g>
<!-- NzAlertModule -->
<g id="node14" class="node">
<title>NzAlertModule</title>
<polygon fill="#8dd3c7" stroke="black" points="2028.13,-122 2025.13,-126 2004.13,-126 2001.13,-122 1923.87,-122 1923.87,-86 2028.13,-86 2028.13,-122"/>
<text text-anchor="middle" x="1976" y="-99.8" font-family="Times,serif" font-size="14.00">NzAlertModule</text>
</g>
<!-- NzAlertModule&#45;&gt;NgzorroModule -->
<g id="edge14" class="edge">
<title>NzAlertModule&#45;&gt;NgzorroModule</title>
<path fill="none" stroke="black" d="M1948.89,-122.11C1948.89,-122.11 1948.89,-140.99 1948.89,-140.99"/>
<polygon fill="black" stroke="black" points="1945.39,-140.99 1948.89,-150.99 1952.39,-140.99 1945.39,-140.99"/>
</g>
<!-- NzTableModule -->
<g id="node15" class="node">
<title>NzTableModule</title>
<polygon fill="#8dd3c7" stroke="black" points="1905.74,-122 1902.74,-126 1881.74,-126 1878.74,-122 1798.26,-122 1798.26,-86 1905.74,-86 1905.74,-122"/>
<text text-anchor="middle" x="1852" y="-99.8" font-family="Times,serif" font-size="14.00">NzTableModule</text>
</g>
<!-- NzTableModule&#45;&gt;NgzorroModule -->
<g id="edge15" class="edge">
<title>NzTableModule&#45;&gt;NgzorroModule</title>
<path fill="none" stroke="black" d="M1886.89,-122.11C1886.89,-122.11 1886.89,-140.99 1886.89,-140.99"/>
<polygon fill="black" stroke="black" points="1883.39,-140.99 1886.89,-150.99 1890.39,-140.99 1883.39,-140.99"/>
</g>
<!-- NzPopconfirmModule -->
<g id="node16" class="node">
<title>NzPopconfirmModule</title>
<polygon fill="#8dd3c7" stroke="black" points="1779.97,-122 1776.97,-126 1755.97,-126 1752.97,-122 1638.03,-122 1638.03,-86 1779.97,-86 1779.97,-122"/>
<text text-anchor="middle" x="1709" y="-99.8" font-family="Times,serif" font-size="14.00">NzPopconfirmModule</text>
</g>
<!-- NzPopconfirmModule&#45;&gt;NgzorroModule -->
<g id="edge16" class="edge">
<title>NzPopconfirmModule&#45;&gt;NgzorroModule</title>
<path fill="none" stroke="black" d="M1758.68,-122.25C1758.68,-136.18 1758.68,-153 1758.68,-153 1758.68,-153 1857.85,-153 1857.85,-153"/>
<polygon fill="black" stroke="black" points="1857.85,-156.5 1867.85,-153 1857.85,-149.5 1857.85,-156.5"/>
</g>
<!-- NzNotificationModule -->
<g id="node17" class="node">
<title>NzNotificationModule</title>
<polygon fill="#8dd3c7" stroke="black" points="1619.52,-122 1616.52,-126 1595.52,-126 1592.52,-122 1476.48,-122 1476.48,-86 1619.52,-86 1619.52,-122"/>
<text text-anchor="middle" x="1548" y="-99.8" font-family="Times,serif" font-size="14.00">NzNotificationModule</text>
</g>
<!-- NzNotificationModule&#45;&gt;NgzorroModule -->
<g id="edge17" class="edge">
<title>NzNotificationModule&#45;&gt;NgzorroModule</title>
<path fill="none" stroke="black" d="M1597.01,-122.05C1597.01,-136.37 1597.01,-154 1597.01,-154 1597.01,-154 1857.86,-154 1857.86,-154"/>
<polygon fill="black" stroke="black" points="1857.86,-157.5 1867.86,-154 1857.86,-150.5 1857.86,-157.5"/>
</g>
<!-- NzSpaceModule -->
<g id="node18" class="node">
<title>NzSpaceModule</title>
<polygon fill="#8dd3c7" stroke="black" points="1458.8,-122 1455.8,-126 1434.8,-126 1431.8,-122 1349.2,-122 1349.2,-86 1458.8,-86 1458.8,-122"/>
<text text-anchor="middle" x="1404" y="-99.8" font-family="Times,serif" font-size="14.00">NzSpaceModule</text>
</g>
<!-- NzSpaceModule&#45;&gt;NgzorroModule -->
<g id="edge18" class="edge">
<title>NzSpaceModule&#45;&gt;NgzorroModule</title>
<path fill="none" stroke="black" d="M1451.12,-122.12C1451.12,-136.78 1451.12,-155 1451.12,-155 1451.12,-155 1857.56,-155 1857.56,-155"/>
<polygon fill="black" stroke="black" points="1857.56,-158.5 1867.56,-155 1857.56,-151.5 1857.56,-158.5"/>
</g>
<!-- NzTabsModule -->
<g id="node19" class="node">
<title>NzTabsModule</title>
<polygon fill="#8dd3c7" stroke="black" points="1331.58,-122 1328.58,-126 1307.58,-126 1304.58,-122 1228.42,-122 1228.42,-86 1331.58,-86 1331.58,-122"/>
<text text-anchor="middle" x="1280" y="-99.8" font-family="Times,serif" font-size="14.00">NzTabsModule</text>
</g>
<!-- NzTabsModule&#45;&gt;NgzorroModule -->
<g id="edge19" class="edge">
<title>NzTabsModule&#45;&gt;NgzorroModule</title>
<path fill="none" stroke="black" d="M1325.12,-122.24C1325.12,-137.57 1325.12,-157 1325.12,-157 1325.12,-157 1857.86,-157 1857.86,-157"/>
<polygon fill="black" stroke="black" points="1857.86,-160.5 1867.86,-157 1857.86,-153.5 1857.86,-160.5"/>
</g>
<!-- NzSelectModule -->
<g id="node20" class="node">
<title>NzSelectModule</title>
<polygon fill="#8dd3c7" stroke="black" points="1210.08,-122 1207.08,-126 1186.08,-126 1183.08,-122 1099.92,-122 1099.92,-86 1210.08,-86 1210.08,-122"/>
<text text-anchor="middle" x="1155" y="-99.8" font-family="Times,serif" font-size="14.00">NzSelectModule</text>
</g>
<!-- NzSelectModule&#45;&gt;NgzorroModule -->
<g id="edge20" class="edge">
<title>NzSelectModule&#45;&gt;NgzorroModule</title>
<path fill="none" stroke="black" d="M1181.76,-122.28C1181.76,-137.95 1181.76,-158 1181.76,-158 1181.76,-158 1857.84,-158 1857.84,-158"/>
<polygon fill="black" stroke="black" points="1857.84,-161.5 1867.84,-158 1857.84,-154.5 1857.84,-161.5"/>
</g>
<!-- NzSkeletonModule -->
<g id="node21" class="node">
<title>NzSkeletonModule</title>
<polygon fill="#8dd3c7" stroke="black" points="1082.36,-122 1079.36,-126 1058.36,-126 1055.36,-122 957.64,-122 957.64,-86 1082.36,-86 1082.36,-122"/>
<text text-anchor="middle" x="1020" y="-99.8" font-family="Times,serif" font-size="14.00">NzSkeletonModule</text>
</g>
<!-- NzSkeletonModule&#45;&gt;NgzorroModule -->
<g id="edge21" class="edge">
<title>NzSkeletonModule&#45;&gt;NgzorroModule</title>
<path fill="none" stroke="black" d="M1052.32,-122.01C1052.32,-138.05 1052.32,-159 1052.32,-159 1052.32,-159 1857.64,-159 1857.64,-159"/>
<polygon fill="black" stroke="black" points="1857.64,-162.5 1867.64,-159 1857.64,-155.5 1857.64,-162.5"/>
</g>
<!-- NzResultModule -->
<g id="node22" class="node">
<title>NzResultModule</title>
<polygon fill="#8dd3c7" stroke="black" points="939.65,-122 936.65,-126 915.65,-126 912.65,-122 828.35,-122 828.35,-86 939.65,-86 939.65,-122"/>
<text text-anchor="middle" x="884" y="-99.8" font-family="Times,serif" font-size="14.00">NzResultModule</text>
</g>
<!-- NzResultModule&#45;&gt;NgzorroModule -->
<g id="edge22" class="edge">
<title>NzResultModule&#45;&gt;NgzorroModule</title>
<path fill="none" stroke="black" d="M914.62,-122.04C914.62,-138.73 914.62,-161 914.62,-161 914.62,-161 1857.6,-161 1857.6,-161"/>
<polygon fill="black" stroke="black" points="1857.6,-164.5 1867.6,-161 1857.6,-157.5 1857.6,-164.5"/>
</g>
<!-- NzSpinModule -->
<g id="node23" class="node">
<title>NzSpinModule</title>
<polygon fill="#8dd3c7" stroke="black" points="809.55,-122 806.55,-126 785.55,-126 782.55,-122 708.45,-122 708.45,-86 809.55,-86 809.55,-122"/>
<text text-anchor="middle" x="759" y="-99.8" font-family="Times,serif" font-size="14.00">NzSpinModule</text>
</g>
<!-- NzSpinModule&#45;&gt;NgzorroModule -->
<g id="edge23" class="edge">
<title>NzSpinModule&#45;&gt;NgzorroModule</title>
<path fill="none" stroke="black" d="M788.12,-122.03C788.12,-139.06 788.12,-162 788.12,-162 788.12,-162 1857.88,-162 1857.88,-162"/>
<polygon fill="black" stroke="black" points="1857.88,-165.5 1867.88,-162 1857.88,-158.5 1857.88,-165.5"/>
</g>
<!-- NzModalModule -->
<g id="node24" class="node">
<title>NzModalModule</title>
<polygon fill="#8dd3c7" stroke="black" points="690.42,-122 687.42,-126 666.42,-126 663.42,-122 577.58,-122 577.58,-86 690.42,-86 690.42,-122"/>
<text text-anchor="middle" x="634" y="-99.8" font-family="Times,serif" font-size="14.00">NzModalModule</text>
</g>
<!-- NzModalModule&#45;&gt;NgzorroModule -->
<g id="edge24" class="edge">
<title>NzModalModule&#45;&gt;NgzorroModule</title>
<path fill="none" stroke="black" d="M661.62,-122.02C661.62,-139.37 661.62,-163 661.62,-163 661.62,-163 1857.69,-163 1857.69,-163"/>
<polygon fill="black" stroke="black" points="1857.69,-166.5 1867.69,-163 1857.69,-159.5 1857.69,-166.5"/>
</g>
<!-- NzDividerModule -->
<g id="node25" class="node">
<title>NzDividerModule</title>
<polygon fill="#8dd3c7" stroke="black" points="559.13,-122 556.13,-126 535.13,-126 532.13,-122 440.87,-122 440.87,-86 559.13,-86 559.13,-122"/>
<text text-anchor="middle" x="500" y="-99.8" font-family="Times,serif" font-size="14.00">NzDividerModule</text>
</g>
<!-- NzDividerModule&#45;&gt;NgzorroModule -->
<g id="edge25" class="edge">
<title>NzDividerModule&#45;&gt;NgzorroModule</title>
<path fill="none" stroke="black" d="M526.12,-122.3C526.12,-140.27 526.12,-165 526.12,-165 526.12,-165 1857.6,-165 1857.6,-165"/>
<polygon fill="black" stroke="black" points="1857.6,-168.5 1867.6,-165 1857.6,-161.5 1857.6,-168.5"/>
</g>
<!-- NzDatePickerModule -->
<g id="node26" class="node">
<title>NzDatePickerModule</title>
<polygon fill="#8dd3c7" stroke="black" points="423.06,-122 420.06,-126 399.06,-126 396.06,-122 284.94,-122 284.94,-86 423.06,-86 423.06,-122"/>
<text text-anchor="middle" x="354" y="-99.8" font-family="Times,serif" font-size="14.00">NzDatePickerModule</text>
</g>
<!-- NzDatePickerModule&#45;&gt;NgzorroModule -->
<g id="edge26" class="edge">
<title>NzDatePickerModule&#45;&gt;NgzorroModule</title>
<path fill="none" stroke="black" d="M378.12,-122.27C378.12,-140.56 378.12,-166 378.12,-166 378.12,-166 1857.89,-166 1857.89,-166"/>
<polygon fill="black" stroke="black" points="1857.89,-169.5 1867.89,-166 1857.89,-162.5 1857.89,-169.5"/>
</g>
<!-- NzMessageModule -->
<g id="node27" class="node">
<title>NzMessageModule</title>
<polygon fill="#8dd3c7" stroke="black" points="267.35,-122 264.35,-126 243.35,-126 240.35,-122 142.65,-122 142.65,-86 267.35,-86 267.35,-122"/>
<text text-anchor="middle" x="205" y="-99.8" font-family="Times,serif" font-size="14.00">NzMessageModule</text>
</g>
<!-- NzMessageModule&#45;&gt;NgzorroModule -->
<g id="edge27" class="edge">
<title>NzMessageModule&#45;&gt;NgzorroModule</title>
<path fill="none" stroke="black" d="M227.12,-122.22C227.12,-140.83 227.12,-167 227.12,-167 227.12,-167 1857.51,-167 1857.51,-167"/>
<polygon fill="black" stroke="black" points="1857.51,-170.5 1867.51,-167 1857.51,-163.5 1857.51,-170.5"/>
</g>
<!-- NzIconModule -->
<g id="node28" class="node">
<title>NzIconModule</title>
<polygon fill="#8dd3c7" stroke="black" points="124.25,-122 121.25,-126 100.25,-126 97.25,-122 23.75,-122 23.75,-86 124.25,-86 124.25,-122"/>
<text text-anchor="middle" x="74" y="-99.8" font-family="Times,serif" font-size="14.00">NzIconModule</text>
</g>
<!-- NzIconModule&#45;&gt;NgzorroModule -->
<g id="edge28" class="edge">
<title>NzIconModule&#45;&gt;NgzorroModule</title>
<path fill="none" stroke="black" d="M82.6,-122.11C82.6,-141.34 82.6,-169 82.6,-169 82.6,-169 1857.47,-169 1857.47,-169"/>
<polygon fill="black" stroke="black" points="1857.47,-172.5 1867.47,-169 1857.47,-165.5 1857.47,-172.5"/>
</g>
<!-- NzMenuModule  -->
<g id="node30" class="node">
<title>NzMenuModule </title>
<polygon fill="#fb8072" stroke="black" points="3756.03,-252 3643.97,-252 3643.97,-216 3756.03,-216 3756.03,-252"/>
<text text-anchor="middle" x="3700" y="-229.8" font-family="Times,serif" font-size="14.00">NzMenuModule </text>
</g>
<!-- NgzorroModule&#45;&gt;NzMenuModule  -->
<g id="edge29" class="edge">
<title>NgzorroModule&#45;&gt;NzMenuModule </title>
<path fill="none" stroke="black" stroke-dasharray="5,2" d="M1974.24,-170C2265.48,-170 3652.58,-170 3652.58,-170 3652.58,-170 3652.58,-205.83 3652.58,-205.83"/>
<polygon fill="black" stroke="black" points="3649.08,-205.83 3652.58,-215.83 3656.08,-205.83 3649.08,-205.83"/>
</g>
<!-- NzLayoutModule  -->
<g id="node31" class="node">
<title>NzLayoutModule </title>
<polygon fill="#fb8072" stroke="black" points="3625.53,-252 3506.47,-252 3506.47,-216 3625.53,-216 3625.53,-252"/>
<text text-anchor="middle" x="3566" y="-229.8" font-family="Times,serif" font-size="14.00">NzLayoutModule </text>
</g>
<!-- NgzorroModule&#45;&gt;NzLayoutModule  -->
<g id="edge30" class="edge">
<title>NgzorroModule&#45;&gt;NzLayoutModule </title>
<path fill="none" stroke="black" stroke-dasharray="5,2" d="M1974.38,-171C2251.3,-171 3511.62,-171 3511.62,-171 3511.62,-171 3511.62,-205.78 3511.62,-205.78"/>
<polygon fill="black" stroke="black" points="3508.13,-205.78 3511.62,-215.78 3515.13,-205.78 3508.13,-205.78"/>
</g>
<!-- NzBreadCrumbModule  -->
<g id="node32" class="node">
<title>NzBreadCrumbModule </title>
<polygon fill="#fb8072" stroke="black" points="3488.69,-252 3337.31,-252 3337.31,-216 3488.69,-216 3488.69,-252"/>
<text text-anchor="middle" x="3413" y="-229.8" font-family="Times,serif" font-size="14.00">NzBreadCrumbModule </text>
</g>
<!-- NgzorroModule&#45;&gt;NzBreadCrumbModule  -->
<g id="edge31" class="edge">
<title>NgzorroModule&#45;&gt;NzBreadCrumbModule </title>
<path fill="none" stroke="black" stroke-dasharray="5,2" d="M1974.36,-173C2234.81,-173 3360.12,-173 3360.12,-173 3360.12,-173 3360.12,-205.7 3360.12,-205.7"/>
<polygon fill="black" stroke="black" points="3356.63,-205.7 3360.12,-215.7 3363.63,-205.7 3356.63,-205.7"/>
</g>
<!-- NzAvatarModule  -->
<g id="node33" class="node">
<title>NzAvatarModule </title>
<polygon fill="#fb8072" stroke="black" points="3318.96,-252 3201.04,-252 3201.04,-216 3318.96,-216 3318.96,-252"/>
<text text-anchor="middle" x="3260" y="-229.8" font-family="Times,serif" font-size="14.00">NzAvatarModule </text>
</g>
<!-- NgzorroModule&#45;&gt;NzAvatarModule  -->
<g id="edge32" class="edge">
<title>NgzorroModule&#45;&gt;NzAvatarModule </title>
<path fill="none" stroke="black" stroke-dasharray="5,2" d="M1974.3,-174C2217.39,-174 3209.12,-174 3209.12,-174 3209.12,-174 3209.12,-206 3209.12,-206"/>
<polygon fill="black" stroke="black" points="3205.63,-206 3209.12,-216 3212.63,-206 3205.63,-206"/>
</g>
<!-- NzIconModule  -->
<g id="node34" class="node">
<title>NzIconModule </title>
<polygon fill="#fb8072" stroke="black" points="3183.25,-252 3078.75,-252 3078.75,-216 3183.25,-216 3183.25,-252"/>
<text text-anchor="middle" x="3131" y="-229.8" font-family="Times,serif" font-size="14.00">NzIconModule </text>
</g>
<!-- NgzorroModule&#45;&gt;NzIconModule  -->
<g id="edge33" class="edge">
<title>NgzorroModule&#45;&gt;NzIconModule </title>
<path fill="none" stroke="black" stroke-dasharray="5,2" d="M1974.45,-175C2203.94,-175 3094.06,-175 3094.06,-175 3094.06,-175 3094.06,-205.98 3094.06,-205.98"/>
<polygon fill="black" stroke="black" points="3090.56,-205.98 3094.06,-215.98 3097.56,-205.98 3090.56,-205.98"/>
</g>
<!-- NzFormModule  -->
<g id="node35" class="node">
<title>NzFormModule </title>
<polygon fill="#fb8072" stroke="black" points="3060.71,-252 2951.29,-252 2951.29,-216 3060.71,-216 3060.71,-252"/>
<text text-anchor="middle" x="3006" y="-229.8" font-family="Times,serif" font-size="14.00">NzFormModule </text>
</g>
<!-- NgzorroModule&#45;&gt;NzFormModule  -->
<g id="edge34" class="edge">
<title>NgzorroModule&#45;&gt;NzFormModule </title>
<path fill="none" stroke="black" stroke-dasharray="5,2" d="M1974.1,-177C2185.52,-177 2955.93,-177 2955.93,-177 2955.93,-177 2955.93,-205.96 2955.93,-205.96"/>
<polygon fill="black" stroke="black" points="2952.43,-205.96 2955.93,-215.96 2959.43,-205.96 2952.43,-205.96"/>
</g>
<!-- NzInputModule  -->
<g id="node36" class="node">
<title>NzInputModule </title>
<polygon fill="#fb8072" stroke="black" points="2933.42,-252 2824.58,-252 2824.58,-216 2933.42,-216 2933.42,-252"/>
<text text-anchor="middle" x="2879" y="-229.8" font-family="Times,serif" font-size="14.00">NzInputModule </text>
</g>
<!-- NgzorroModule&#45;&gt;NzInputModule  -->
<g id="edge35" class="edge">
<title>NgzorroModule&#45;&gt;NzInputModule </title>
<path fill="none" stroke="black" stroke-dasharray="5,2" d="M1974.18,-178C2168.77,-178 2830.77,-178 2830.77,-178 2830.77,-178 2830.77,-205.97 2830.77,-205.97"/>
<polygon fill="black" stroke="black" points="2827.27,-205.97 2830.77,-215.97 2834.27,-205.97 2827.27,-205.97"/>
</g>
<!-- NzButtonModule  -->
<g id="node37" class="node">
<title>NzButtonModule </title>
<polygon fill="#fb8072" stroke="black" points="2806.99,-252 2689.01,-252 2689.01,-216 2806.99,-216 2806.99,-252"/>
<text text-anchor="middle" x="2748" y="-229.8" font-family="Times,serif" font-size="14.00">NzButtonModule </text>
</g>
<!-- NgzorroModule&#45;&gt;NzButtonModule  -->
<g id="edge36" class="edge">
<title>NgzorroModule&#45;&gt;NzButtonModule </title>
<path fill="none" stroke="black" stroke-dasharray="5,2" d="M1974.36,-179C2149.74,-179 2697.29,-179 2697.29,-179 2697.29,-179 2697.29,-205.99 2697.29,-205.99"/>
<polygon fill="black" stroke="black" points="2693.79,-205.99 2697.29,-215.99 2700.79,-205.99 2693.79,-205.99"/>
</g>
<!-- NzCheckboxModule  -->
<g id="node38" class="node">
<title>NzCheckboxModule </title>
<polygon fill="#fb8072" stroke="black" points="2671.14,-252 2534.86,-252 2534.86,-216 2671.14,-216 2671.14,-252"/>
<text text-anchor="middle" x="2603" y="-229.8" font-family="Times,serif" font-size="14.00">NzCheckboxModule </text>
</g>
<!-- NgzorroModule&#45;&gt;NzCheckboxModule  -->
<g id="edge37" class="edge">
<title>NgzorroModule&#45;&gt;NzCheckboxModule </title>
<path fill="none" stroke="black" stroke-dasharray="5,2" d="M1974.19,-181C2125.05,-181 2544.85,-181 2544.85,-181 2544.85,-181 2544.85,-205.76 2544.85,-205.76"/>
<polygon fill="black" stroke="black" points="2541.35,-205.76 2544.85,-215.76 2548.35,-205.76 2541.35,-205.76"/>
</g>
<!-- NzGridModule  -->
<g id="node39" class="node">
<title>NzGridModule </title>
<polygon fill="#fb8072" stroke="black" points="2516.53,-252 2411.47,-252 2411.47,-216 2516.53,-216 2516.53,-252"/>
<text text-anchor="middle" x="2464" y="-229.8" font-family="Times,serif" font-size="14.00">NzGridModule </text>
</g>
<!-- NgzorroModule&#45;&gt;NzGridModule  -->
<g id="edge38" class="edge">
<title>NgzorroModule&#45;&gt;NzGridModule </title>
<path fill="none" stroke="black" stroke-dasharray="5,2" d="M1974.3,-182C2103.63,-182 2423.51,-182 2423.51,-182 2423.51,-182 2423.51,-205.81 2423.51,-205.81"/>
<polygon fill="black" stroke="black" points="2420.01,-205.81 2423.51,-215.81 2427.01,-205.81 2420.01,-205.81"/>
</g>
<!-- NzCardModule  -->
<g id="node40" class="node">
<title>NzCardModule </title>
<polygon fill="#fb8072" stroke="black" points="2393.08,-252 2286.92,-252 2286.92,-216 2393.08,-216 2393.08,-252"/>
<text text-anchor="middle" x="2340" y="-229.8" font-family="Times,serif" font-size="14.00">NzCardModule </text>
</g>
<!-- NgzorroModule&#45;&gt;NzCardModule  -->
<g id="edge39" class="edge">
<title>NgzorroModule&#45;&gt;NzCardModule </title>
<path fill="none" stroke="black" stroke-dasharray="5,2" d="M1974.18,-183C2078.64,-183 2300.57,-183 2300.57,-183 2300.57,-183 2300.57,-205.88 2300.57,-205.88"/>
<polygon fill="black" stroke="black" points="2297.07,-205.88 2300.57,-215.88 2304.07,-205.88 2297.07,-205.88"/>
</g>
<!-- NzDropDownModule  -->
<g id="node41" class="node">
<title>NzDropDownModule </title>
<polygon fill="#fb8072" stroke="black" points="2269.35,-252 2126.65,-252 2126.65,-216 2269.35,-216 2269.35,-252"/>
<text text-anchor="middle" x="2198" y="-229.8" font-family="Times,serif" font-size="14.00">NzDropDownModule </text>
</g>
<!-- NgzorroModule&#45;&gt;NzDropDownModule  -->
<g id="edge40" class="edge">
<title>NgzorroModule&#45;&gt;NzDropDownModule </title>
<path fill="none" stroke="black" stroke-dasharray="5,2" d="M1974.29,-185C2039.78,-185 2142.32,-185 2142.32,-185 2142.32,-185 2142.32,-205.75 2142.32,-205.75"/>
<polygon fill="black" stroke="black" points="2138.82,-205.75 2142.32,-215.75 2145.82,-205.75 2138.82,-205.75"/>
</g>
<!-- NzBadgeModule  -->
<g id="node42" class="node">
<title>NzBadgeModule </title>
<polygon fill="#fb8072" stroke="black" points="2108.64,-252 1993.36,-252 1993.36,-216 2108.64,-216 2108.64,-252"/>
<text text-anchor="middle" x="2051" y="-229.8" font-family="Times,serif" font-size="14.00">NzBadgeModule </text>
</g>
<!-- NgzorroModule&#45;&gt;NzBadgeModule  -->
<g id="edge41" class="edge">
<title>NgzorroModule&#45;&gt;NzBadgeModule </title>
<path fill="none" stroke="black" stroke-dasharray="5,2" d="M1974.32,-186C1993.67,-186 2010.87,-186 2010.87,-186 2010.87,-186 2010.87,-205.85 2010.87,-205.85"/>
<polygon fill="black" stroke="black" points="2007.37,-205.85 2010.87,-215.85 2014.37,-205.85 2007.37,-205.85"/>
</g>
<!-- NzAlertModule  -->
<g id="node43" class="node">
<title>NzAlertModule </title>
<polygon fill="#fb8072" stroke="black" points="1975.13,-252 1866.87,-252 1866.87,-216 1975.13,-216 1975.13,-252"/>
<text text-anchor="middle" x="1921" y="-229.8" font-family="Times,serif" font-size="14.00">NzAlertModule </text>
</g>
<!-- NgzorroModule&#45;&gt;NzAlertModule  -->
<g id="edge42" class="edge">
<title>NgzorroModule&#45;&gt;NzAlertModule </title>
<path fill="none" stroke="black" stroke-dasharray="5,2" d="M1921,-187.11C1921,-187.11 1921,-205.99 1921,-205.99"/>
<polygon fill="black" stroke="black" points="1917.5,-205.99 1921,-215.99 1924.5,-205.99 1917.5,-205.99"/>
</g>
<!-- NzTableModule  -->
<g id="node44" class="node">
<title>NzTableModule </title>
<polygon fill="#fb8072" stroke="black" points="1848.74,-252 1737.26,-252 1737.26,-216 1848.74,-216 1848.74,-252"/>
<text text-anchor="middle" x="1793" y="-229.8" font-family="Times,serif" font-size="14.00">NzTableModule </text>
</g>
<!-- NgzorroModule&#45;&gt;NzTableModule  -->
<g id="edge43" class="edge">
<title>NgzorroModule&#45;&gt;NzTableModule </title>
<path fill="none" stroke="black" stroke-dasharray="5,2" d="M1867.9,-186C1845,-186 1823.38,-186 1823.38,-186 1823.38,-186 1823.38,-205.85 1823.38,-205.85"/>
<polygon fill="black" stroke="black" points="1819.88,-205.85 1823.38,-215.85 1826.88,-205.85 1819.88,-205.85"/>
</g>
<!-- NzPopconfirmModule  -->
<g id="node45" class="node">
<title>NzPopconfirmModule </title>
<polygon fill="#fb8072" stroke="black" points="1719.97,-252 1574.03,-252 1574.03,-216 1719.97,-216 1719.97,-252"/>
<text text-anchor="middle" x="1647" y="-229.8" font-family="Times,serif" font-size="14.00">NzPopconfirmModule </text>
</g>
<!-- NgzorroModule&#45;&gt;NzPopconfirmModule  -->
<g id="edge44" class="edge">
<title>NgzorroModule&#45;&gt;NzPopconfirmModule </title>
<path fill="none" stroke="black" stroke-dasharray="5,2" d="M1867.86,-185C1796.59,-185 1678.88,-185 1678.88,-185 1678.88,-185 1678.88,-205.75 1678.88,-205.75"/>
<polygon fill="black" stroke="black" points="1675.38,-205.75 1678.88,-215.75 1682.38,-205.75 1675.38,-205.75"/>
</g>
<!-- NzSpaceModule  -->
<g id="node46" class="node">
<title>NzSpaceModule </title>
<polygon fill="#fb8072" stroke="black" points="1556.3,-252 1443.7,-252 1443.7,-216 1556.3,-216 1556.3,-252"/>
<text text-anchor="middle" x="1500" y="-229.8" font-family="Times,serif" font-size="14.00">NzSpaceModule </text>
</g>
<!-- NgzorroModule&#45;&gt;NzSpaceModule  -->
<g id="edge45" class="edge">
<title>NgzorroModule&#45;&gt;NzSpaceModule </title>
<path fill="none" stroke="black" stroke-dasharray="5,2" d="M1867.68,-183C1757.79,-183 1516.32,-183 1516.32,-183 1516.32,-183 1516.32,-205.88 1516.32,-205.88"/>
<polygon fill="black" stroke="black" points="1512.82,-205.88 1516.32,-215.88 1519.82,-205.88 1512.82,-205.88"/>
</g>
<!-- NzTabsModule  -->
<g id="node47" class="node">
<title>NzTabsModule </title>
<polygon fill="#fb8072" stroke="black" points="1425.08,-252 1318.92,-252 1318.92,-216 1425.08,-216 1425.08,-252"/>
<text text-anchor="middle" x="1372" y="-229.8" font-family="Times,serif" font-size="14.00">NzTabsModule </text>
</g>
<!-- NgzorroModule&#45;&gt;NzTabsModule  -->
<g id="edge46" class="edge">
<title>NgzorroModule&#45;&gt;NzTabsModule </title>
<path fill="none" stroke="black" stroke-dasharray="5,2" d="M1867.88,-182C1732.89,-182 1387.32,-182 1387.32,-182 1387.32,-182 1387.32,-205.81 1387.32,-205.81"/>
<polygon fill="black" stroke="black" points="1383.82,-205.81 1387.32,-215.81 1390.82,-205.81 1383.82,-205.81"/>
</g>
<!-- NzNotificationModule  -->
<g id="node48" class="node">
<title>NzNotificationModule </title>
<polygon fill="#fb8072" stroke="black" points="1300.52,-252 1153.48,-252 1153.48,-216 1300.52,-216 1300.52,-252"/>
<text text-anchor="middle" x="1227" y="-229.8" font-family="Times,serif" font-size="14.00">NzNotificationModule </text>
</g>
<!-- NgzorroModule&#45;&gt;NzNotificationModule  -->
<g id="edge47" class="edge">
<title>NgzorroModule&#45;&gt;NzNotificationModule </title>
<path fill="none" stroke="black" stroke-dasharray="5,2" d="M1867.83,-181C1711.54,-181 1264.48,-181 1264.48,-181 1264.48,-181 1264.48,-205.76 1264.48,-205.76"/>
<polygon fill="black" stroke="black" points="1260.98,-205.76 1264.48,-215.76 1267.98,-205.76 1260.98,-205.76"/>
</g>
<!-- NzSelectModule  -->
<g id="node49" class="node">
<title>NzSelectModule </title>
<polygon fill="#fb8072" stroke="black" points="1135.58,-252 1022.42,-252 1022.42,-216 1135.58,-216 1135.58,-252"/>
<text text-anchor="middle" x="1079" y="-229.8" font-family="Times,serif" font-size="14.00">NzSelectModule </text>
</g>
<!-- NgzorroModule&#45;&gt;NzSelectModule  -->
<g id="edge48" class="edge">
<title>NgzorroModule&#45;&gt;NzSelectModule </title>
<path fill="none" stroke="black" stroke-dasharray="5,2" d="M1867.68,-179C1688.31,-179 1117.88,-179 1117.88,-179 1117.88,-179 1117.88,-205.99 1117.88,-205.99"/>
<polygon fill="black" stroke="black" points="1114.38,-205.99 1117.88,-215.99 1121.38,-205.99 1114.38,-205.99"/>
</g>
<!-- NzResultModule  -->
<g id="node50" class="node">
<title>NzResultModule </title>
<polygon fill="#fb8072" stroke="black" points="1004.65,-252 889.35,-252 889.35,-216 1004.65,-216 1004.65,-252"/>
<text text-anchor="middle" x="947" y="-229.8" font-family="Times,serif" font-size="14.00">NzResultModule </text>
</g>
<!-- NgzorroModule&#45;&gt;NzResultModule  -->
<g id="edge49" class="edge">
<title>NgzorroModule&#45;&gt;NzResultModule </title>
<path fill="none" stroke="black" stroke-dasharray="5,2" d="M1867.77,-178C1668.94,-178 981.07,-178 981.07,-178 981.07,-178 981.07,-205.97 981.07,-205.97"/>
<polygon fill="black" stroke="black" points="977.57,-205.97 981.07,-215.97 984.57,-205.97 977.57,-205.97"/>
</g>
<!-- NzSpinModule  -->
<g id="node51" class="node">
<title>NzSpinModule </title>
<polygon fill="#fb8072" stroke="black" points="871.54,-252 766.46,-252 766.46,-216 871.54,-216 871.54,-252"/>
<text text-anchor="middle" x="819" y="-229.8" font-family="Times,serif" font-size="14.00">NzSpinModule </text>
</g>
<!-- NgzorroModule&#45;&gt;NzSpinModule  -->
<g id="edge50" class="edge">
<title>NgzorroModule&#45;&gt;NzSpinModule </title>
<path fill="none" stroke="black" stroke-dasharray="5,2" d="M1867.88,-177C1651.75,-177 849.85,-177 849.85,-177 849.85,-177 849.85,-205.96 849.85,-205.96"/>
<polygon fill="black" stroke="black" points="846.35,-205.96 849.85,-215.96 853.35,-205.96 846.35,-205.96"/>
</g>
<!-- NzModalModule  -->
<g id="node52" class="node">
<title>NzModalModule </title>
<polygon fill="#fb8072" stroke="black" points="748.92,-252 633.08,-252 633.08,-216 748.92,-216 748.92,-252"/>
<text text-anchor="middle" x="691" y="-229.8" font-family="Times,serif" font-size="14.00">NzModalModule </text>
</g>
<!-- NgzorroModule&#45;&gt;NzModalModule  -->
<g id="edge51" class="edge">
<title>NgzorroModule&#45;&gt;NzModalModule </title>
<path fill="none" stroke="black" stroke-dasharray="5,2" d="M1867.84,-175C1636.44,-175 728.59,-175 728.59,-175 728.59,-175 728.59,-205.98 728.59,-205.98"/>
<polygon fill="black" stroke="black" points="725.09,-205.98 728.59,-215.98 732.09,-205.98 725.09,-205.98"/>
</g>
<!-- NzDividerModule  -->
<g id="node53" class="node">
<title>NzDividerModule </title>
<polygon fill="#fb8072" stroke="black" points="615.13,-252 492.87,-252 492.87,-216 615.13,-216 615.13,-252"/>
<text text-anchor="middle" x="554" y="-229.8" font-family="Times,serif" font-size="14.00">NzDividerModule </text>
</g>
<!-- NgzorroModule&#45;&gt;NzDividerModule  -->
<g id="edge52" class="edge">
<title>NgzorroModule&#45;&gt;NzDividerModule </title>
<path fill="none" stroke="black" stroke-dasharray="5,2" d="M1867.85,-174C1620.77,-174 596.43,-174 596.43,-174 596.43,-174 596.43,-206 596.43,-206"/>
<polygon fill="black" stroke="black" points="592.93,-206 596.43,-216 599.93,-206 592.93,-206"/>
</g>
<!-- NzDatePickerModule  -->
<g id="node54" class="node">
<title>NzDatePickerModule </title>
<polygon fill="#fb8072" stroke="black" points="474.56,-252 333.44,-252 333.44,-216 474.56,-216 474.56,-252"/>
<text text-anchor="middle" x="404" y="-229.8" font-family="Times,serif" font-size="14.00">NzDatePickerModule </text>
</g>
<!-- NgzorroModule&#45;&gt;NzDatePickerModule  -->
<g id="edge53" class="edge">
<title>NgzorroModule&#45;&gt;NzDatePickerModule </title>
<path fill="none" stroke="black" stroke-dasharray="5,2" d="M1867.62,-173C1604.46,-173 457.73,-173 457.73,-173 457.73,-173 457.73,-205.7 457.73,-205.7"/>
<polygon fill="black" stroke="black" points="454.23,-205.7 457.73,-215.7 461.23,-205.7 454.23,-205.7"/>
</g>
<!-- NzMessageModule  -->
<g id="node55" class="node">
<title>NzMessageModule </title>
<polygon fill="#fb8072" stroke="black" points="315.35,-252 186.65,-252 186.65,-216 315.35,-216 315.35,-252"/>
<text text-anchor="middle" x="251" y="-229.8" font-family="Times,serif" font-size="14.00">NzMessageModule </text>
</g>
<!-- NgzorroModule&#45;&gt;NzMessageModule  -->
<g id="edge54" class="edge">
<title>NgzorroModule&#45;&gt;NzMessageModule </title>
<path fill="none" stroke="black" stroke-dasharray="5,2" d="M1867.53,-171C1587.22,-171 300.07,-171 300.07,-171 300.07,-171 300.07,-205.78 300.07,-205.78"/>
<polygon fill="black" stroke="black" points="296.57,-205.78 300.07,-215.78 303.57,-205.78 296.57,-205.78"/>
</g>
<!-- NzSkeletonModule  -->
<g id="node56" class="node">
<title>NzSkeletonModule </title>
<polygon fill="#fb8072" stroke="black" points="169.36,-252 40.64,-252 40.64,-216 169.36,-216 169.36,-252"/>
<text text-anchor="middle" x="105" y="-229.8" font-family="Times,serif" font-size="14.00">NzSkeletonModule </text>
</g>
<!-- NgzorroModule&#45;&gt;NzSkeletonModule  -->
<g id="edge55" class="edge">
<title>NgzorroModule&#45;&gt;NzSkeletonModule </title>
<path fill="none" stroke="black" stroke-dasharray="5,2" d="M1867.69,-170C1572.93,-170 155.88,-170 155.88,-170 155.88,-170 155.88,-205.83 155.88,-205.83"/>
<polygon fill="black" stroke="black" points="152.38,-205.83 155.88,-215.83 159.38,-205.83 152.38,-205.83"/>
</g>
</g>
</svg>
