<?xml version="1.0" encoding="UTF-8" standalone="no"?>
<!DOCTYPE svg PUBLIC "-//W3C//DTD SVG 1.1//EN"
 "http://www.w3.org/Graphics/SVG/1.1/DTD/svg11.dtd">
<!-- Generated by graphviz version 2.46.0 (20210119.1425)
 -->
<!-- Title: dependencies Pages: 1 -->
<svg width="2736pt" height="284pt"
 viewBox="0.00 0.00 2736.00 284.00" xmlns="http://www.w3.org/2000/svg" xmlns:xlink="http://www.w3.org/1999/xlink">
<g id="graph0" class="graph" transform="scale(1 1) rotate(0) translate(4 280)">
<title>dependencies</title>
<polygon fill="white" stroke="transparent" points="-4,4 -4,-280 2732,-280 2732,4 -4,4"/>
<text text-anchor="start" x="1343.01" y="-42.4" font-family="sans-serif" font-weight="bold" font-size="14.00">Legend</text>
<polygon fill="#ffffb3" stroke="transparent" points="1130,-10 1130,-30 1150,-30 1150,-10 1130,-10"/>
<text text-anchor="start" x="1153.63" y="-15.4" font-family="sans-serif" font-size="14.00"> &#160;Declarations</text>
<polygon fill="#8dd3c7" stroke="transparent" points="1243,-10 1243,-30 1263,-30 1263,-10 1243,-10"/>
<text text-anchor="start" x="1266.73" y="-15.4" font-family="sans-serif" font-size="14.00"> &#160;Module</text>
<polygon fill="#80b1d3" stroke="transparent" points="1329,-10 1329,-30 1349,-30 1349,-10 1329,-10"/>
<text text-anchor="start" x="1352.78" y="-15.4" font-family="sans-serif" font-size="14.00"> &#160;Bootstrap</text>
<polygon fill="#fdb462" stroke="transparent" points="1426,-10 1426,-30 1446,-30 1446,-10 1426,-10"/>
<text text-anchor="start" x="1449.67" y="-15.4" font-family="sans-serif" font-size="14.00"> &#160;Providers</text>
<polygon fill="#fb8072" stroke="transparent" points="1522,-10 1522,-30 1542,-30 1542,-10 1522,-10"/>
<text text-anchor="start" x="1545.73" y="-15.4" font-family="sans-serif" font-size="14.00"> &#160;Exports</text>
<g id="clust1" class="cluster">
<title>cluster_AppModule</title>
<polygon fill="none" stroke="black" stroke-dasharray="1,5" points="8,-70 8,-268 2720,-268 2720,-70 8,-70"/>
</g>
<g id="clust2" class="cluster">
<title>cluster_AppModule_declarations</title>
<polygon fill="none" stroke="black" points="334,-78 334,-130 2712,-130 2712,-78 334,-78"/>
</g>
<g id="clust20" class="cluster">
<title>cluster_AppModule_imports</title>
<polygon fill="none" stroke="black" points="204,-78 204,-130 326,-130 326,-78 204,-78"/>
</g>
<g id="clust22" class="cluster">
<title>cluster_AppModule_bootstrap</title>
<polygon fill="none" stroke="black" points="1305,-208 1305,-260 1429,-260 1429,-208 1305,-208"/>
</g>
<g id="clust23" class="cluster">
<title>cluster_AppModule_providers</title>
<polygon fill="none" stroke="black" points="16,-78 16,-130 196,-130 196,-78 16,-78"/>
</g>
<!-- AppComponent -->
<g id="node1" class="node">
<title>AppComponent</title>
<polygon fill="#ffffb3" stroke="black" points="2703.94,-122 2598.06,-122 2598.06,-86 2703.94,-86 2703.94,-122"/>
<text text-anchor="middle" x="2651" y="-99.8" font-family="Times,serif" font-size="14.00">AppComponent</text>
</g>
<!-- AppModule -->
<g id="node18" class="node">
<title>AppModule</title>
<polygon fill="#8dd3c7" stroke="black" points="1408.66,-187 1405.66,-191 1384.66,-191 1381.66,-187 1325.34,-187 1325.34,-151 1408.66,-151 1408.66,-187"/>
<text text-anchor="middle" x="1367" y="-164.8" font-family="Times,serif" font-size="14.00">AppModule</text>
</g>
<!-- AppComponent&#45;&gt;AppModule -->
<g id="edge1" class="edge">
<title>AppComponent&#45;&gt;AppModule</title>
<path fill="none" stroke="black" d="M2651,-122.15C2651,-145.76 2651,-184 2651,-184 2651,-184 1418.99,-184 1418.99,-184"/>
<polygon fill="black" stroke="black" points="1418.99,-180.5 1408.99,-184 1418.99,-187.5 1418.99,-180.5"/>
</g>
<!-- BreadcrumbComponent -->
<g id="node2" class="node">
<title>BreadcrumbComponent</title>
<polygon fill="#ffffb3" stroke="black" points="2580.03,-122 2429.97,-122 2429.97,-86 2580.03,-86 2580.03,-122"/>
<text text-anchor="middle" x="2505" y="-99.8" font-family="Times,serif" font-size="14.00">BreadcrumbComponent</text>
</g>
<!-- BreadcrumbComponent&#45;&gt;AppModule -->
<g id="edge2" class="edge">
<title>BreadcrumbComponent&#45;&gt;AppModule</title>
<path fill="none" stroke="black" d="M2505,-122.01C2505,-144.49 2505,-180 2505,-180 2505,-180 1418.85,-180 1418.85,-180"/>
<polygon fill="black" stroke="black" points="1418.85,-176.5 1408.85,-180 1418.85,-183.5 1418.85,-176.5"/>
</g>
<!-- ConfigComponent -->
<g id="node3" class="node">
<title>ConfigComponent</title>
<polygon fill="#ffffb3" stroke="black" points="2412.22,-122 2291.78,-122 2291.78,-86 2412.22,-86 2412.22,-122"/>
<text text-anchor="middle" x="2352" y="-99.8" font-family="Times,serif" font-size="14.00">ConfigComponent</text>
</g>
<!-- ConfigComponent&#45;&gt;AppModule -->
<g id="edge3" class="edge">
<title>ConfigComponent&#45;&gt;AppModule</title>
<path fill="none" stroke="black" d="M2352,-122.04C2352,-143.66 2352,-177 2352,-177 2352,-177 1418.7,-177 1418.7,-177"/>
<polygon fill="black" stroke="black" points="1418.7,-173.5 1408.7,-177 1418.7,-180.5 1418.7,-173.5"/>
</g>
<!-- CuentaComponent -->
<g id="node4" class="node">
<title>CuentaComponent</title>
<polygon fill="#ffffb3" stroke="black" points="2273.49,-122 2152.51,-122 2152.51,-86 2273.49,-86 2273.49,-122"/>
<text text-anchor="middle" x="2213" y="-99.8" font-family="Times,serif" font-size="14.00">CuentaComponent</text>
</g>
<!-- CuentaComponent&#45;&gt;AppModule -->
<g id="edge4" class="edge">
<title>CuentaComponent&#45;&gt;AppModule</title>
<path fill="none" stroke="black" d="M2213,-122.13C2213,-142.57 2213,-173 2213,-173 2213,-173 1418.66,-173 1418.66,-173"/>
<polygon fill="black" stroke="black" points="1418.66,-169.5 1408.66,-173 1418.66,-176.5 1418.66,-169.5"/>
</g>
<!-- CuentasComponent -->
<g id="node5" class="node">
<title>CuentasComponent</title>
<polygon fill="#ffffb3" stroke="black" points="2134.43,-122 2007.57,-122 2007.57,-86 2134.43,-86 2134.43,-122"/>
<text text-anchor="middle" x="2071" y="-99.8" font-family="Times,serif" font-size="14.00">CuentasComponent</text>
</g>
<!-- CuentasComponent&#45;&gt;AppModule -->
<g id="edge5" class="edge">
<title>CuentasComponent&#45;&gt;AppModule</title>
<path fill="none" stroke="black" d="M2071,-122.11C2071,-141.34 2071,-169 2071,-169 2071,-169 1418.67,-169 1418.67,-169"/>
<polygon fill="black" stroke="black" points="1418.67,-165.5 1408.67,-169 1418.67,-172.5 1418.67,-165.5"/>
</g>
<!-- DashboardComponent -->
<g id="node6" class="node">
<title>DashboardComponent</title>
<polygon fill="#ffffb3" stroke="black" points="1989.97,-122 1848.03,-122 1848.03,-86 1989.97,-86 1989.97,-122"/>
<text text-anchor="middle" x="1919" y="-99.8" font-family="Times,serif" font-size="14.00">DashboardComponent</text>
</g>
<!-- DashboardComponent&#45;&gt;AppModule -->
<g id="edge6" class="edge">
<title>DashboardComponent&#45;&gt;AppModule</title>
<path fill="none" stroke="black" d="M1919,-122.27C1919,-140.56 1919,-166 1919,-166 1919,-166 1418.94,-166 1418.94,-166"/>
<polygon fill="black" stroke="black" points="1418.94,-162.5 1408.94,-166 1418.94,-169.5 1418.94,-162.5"/>
</g>
<!-- EmailsComponent -->
<g id="node7" class="node">
<title>EmailsComponent</title>
<polygon fill="#ffffb3" stroke="black" points="1830.22,-122 1709.78,-122 1709.78,-86 1830.22,-86 1830.22,-122"/>
<text text-anchor="middle" x="1770" y="-99.8" font-family="Times,serif" font-size="14.00">EmailsComponent</text>
</g>
<!-- EmailsComponent&#45;&gt;AppModule -->
<g id="edge7" class="edge">
<title>EmailsComponent&#45;&gt;AppModule</title>
<path fill="none" stroke="black" d="M1770,-122.03C1770,-139.06 1770,-162 1770,-162 1770,-162 1418.99,-162 1418.99,-162"/>
<polygon fill="black" stroke="black" points="1418.99,-158.5 1408.99,-162 1418.99,-165.5 1418.99,-158.5"/>
</g>
<!-- FooterComponent -->
<g id="node8" class="node">
<title>FooterComponent</title>
<polygon fill="#ffffb3" stroke="black" points="1691.88,-122 1574.12,-122 1574.12,-86 1691.88,-86 1691.88,-122"/>
<text text-anchor="middle" x="1633" y="-99.8" font-family="Times,serif" font-size="14.00">FooterComponent</text>
</g>
<!-- FooterComponent&#45;&gt;AppModule -->
<g id="edge8" class="edge">
<title>FooterComponent&#45;&gt;AppModule</title>
<path fill="none" stroke="black" d="M1633,-122.01C1633,-138.05 1633,-159 1633,-159 1633,-159 1418.86,-159 1418.86,-159"/>
<polygon fill="black" stroke="black" points="1418.86,-155.5 1408.86,-159 1418.86,-162.5 1418.86,-155.5"/>
</g>
<!-- LoginComponent -->
<g id="node9" class="node">
<title>LoginComponent</title>
<polygon fill="#ffffb3" stroke="black" points="1556.28,-122 1441.72,-122 1441.72,-86 1556.28,-86 1556.28,-122"/>
<text text-anchor="middle" x="1499" y="-99.8" font-family="Times,serif" font-size="14.00">LoginComponent</text>
</g>
<!-- LoginComponent&#45;&gt;AppModule -->
<g id="edge9" class="edge">
<title>LoginComponent&#45;&gt;AppModule</title>
<path fill="none" stroke="black" d="M1499,-122.12C1499,-136.78 1499,-155 1499,-155 1499,-155 1418.77,-155 1418.77,-155"/>
<polygon fill="black" stroke="black" points="1418.77,-151.5 1408.77,-155 1418.77,-158.5 1418.77,-151.5"/>
</g>
<!-- PagesComponent -->
<g id="node10" class="node">
<title>PagesComponent</title>
<polygon fill="#ffffb3" stroke="black" points="1423.99,-122 1310.01,-122 1310.01,-86 1423.99,-86 1423.99,-122"/>
<text text-anchor="middle" x="1367" y="-99.8" font-family="Times,serif" font-size="14.00">PagesComponent</text>
</g>
<!-- PagesComponent&#45;&gt;AppModule -->
<g id="edge10" class="edge">
<title>PagesComponent&#45;&gt;AppModule</title>
<path fill="none" stroke="black" d="M1367,-122.11C1367,-122.11 1367,-140.99 1367,-140.99"/>
<polygon fill="black" stroke="black" points="1363.5,-140.99 1367,-150.99 1370.5,-140.99 1363.5,-140.99"/>
</g>
<!-- ParametrosComponent -->
<g id="node11" class="node">
<title>ParametrosComponent</title>
<polygon fill="#ffffb3" stroke="black" points="1292.31,-122 1147.69,-122 1147.69,-86 1292.31,-86 1292.31,-122"/>
<text text-anchor="middle" x="1220" y="-99.8" font-family="Times,serif" font-size="14.00">ParametrosComponent</text>
</g>
<!-- ParametrosComponent&#45;&gt;AppModule -->
<g id="edge11" class="edge">
<title>ParametrosComponent&#45;&gt;AppModule</title>
<path fill="none" stroke="black" d="M1220,-122.12C1220,-136.78 1220,-155 1220,-155 1220,-155 1315.27,-155 1315.27,-155"/>
<polygon fill="black" stroke="black" points="1315.27,-158.5 1325.27,-155 1315.27,-151.5 1315.27,-158.5"/>
</g>
<!-- PercentagesComponent -->
<g id="node12" class="node">
<title>PercentagesComponent</title>
<polygon fill="#ffffb3" stroke="black" points="1130.18,-122 981.82,-122 981.82,-86 1130.18,-86 1130.18,-122"/>
<text text-anchor="middle" x="1056" y="-99.8" font-family="Times,serif" font-size="14.00">PercentagesComponent</text>
</g>
<!-- PercentagesComponent&#45;&gt;AppModule -->
<g id="edge12" class="edge">
<title>PercentagesComponent&#45;&gt;AppModule</title>
<path fill="none" stroke="black" d="M1056,-122.01C1056,-138.05 1056,-159 1056,-159 1056,-159 1315.06,-159 1315.06,-159"/>
<polygon fill="black" stroke="black" points="1315.06,-162.5 1325.06,-159 1315.06,-155.5 1315.06,-162.5"/>
</g>
<!-- SiderComponent -->
<g id="node13" class="node">
<title>SiderComponent</title>
<polygon fill="#ffffb3" stroke="black" points="963.38,-122 852.62,-122 852.62,-86 963.38,-86 963.38,-122"/>
<text text-anchor="middle" x="908" y="-99.8" font-family="Times,serif" font-size="14.00">SiderComponent</text>
</g>
<!-- SiderComponent&#45;&gt;AppModule -->
<g id="edge13" class="edge">
<title>SiderComponent&#45;&gt;AppModule</title>
<path fill="none" stroke="black" d="M908,-122.03C908,-139.06 908,-162 908,-162 908,-162 1315.05,-162 1315.05,-162"/>
<polygon fill="black" stroke="black" points="1315.05,-165.5 1325.05,-162 1315.05,-158.5 1315.05,-165.5"/>
</g>
<!-- TaxComponent -->
<g id="node14" class="node">
<title>TaxComponent</title>
<polygon fill="#ffffb3" stroke="black" points="834.6,-122 731.4,-122 731.4,-86 834.6,-86 834.6,-122"/>
<text text-anchor="middle" x="783" y="-99.8" font-family="Times,serif" font-size="14.00">TaxComponent</text>
</g>
<!-- TaxComponent&#45;&gt;AppModule -->
<g id="edge14" class="edge">
<title>TaxComponent&#45;&gt;AppModule</title>
<path fill="none" stroke="black" d="M783,-122.27C783,-140.56 783,-166 783,-166 783,-166 1315,-166 1315,-166"/>
<polygon fill="black" stroke="black" points="1315,-169.5 1325,-166 1315,-162.5 1315,-169.5"/>
</g>
<!-- TaxesComponent -->
<g id="node15" class="node">
<title>TaxesComponent</title>
<polygon fill="#ffffb3" stroke="black" points="713.26,-122 598.74,-122 598.74,-86 713.26,-86 713.26,-122"/>
<text text-anchor="middle" x="656" y="-99.8" font-family="Times,serif" font-size="14.00">TaxesComponent</text>
</g>
<!-- TaxesComponent&#45;&gt;AppModule -->
<g id="edge15" class="edge">
<title>TaxesComponent&#45;&gt;AppModule</title>
<path fill="none" stroke="black" d="M656,-122.11C656,-141.34 656,-169 656,-169 656,-169 1315.18,-169 1315.18,-169"/>
<polygon fill="black" stroke="black" points="1315.18,-172.5 1325.18,-169 1315.18,-165.5 1315.18,-172.5"/>
</g>
<!-- UserComponent -->
<g id="node16" class="node">
<title>UserComponent</title>
<polygon fill="#ffffb3" stroke="black" points="580.76,-122 473.24,-122 473.24,-86 580.76,-86 580.76,-122"/>
<text text-anchor="middle" x="527" y="-99.8" font-family="Times,serif" font-size="14.00">UserComponent</text>
</g>
<!-- UserComponent&#45;&gt;AppModule -->
<g id="edge16" class="edge">
<title>UserComponent&#45;&gt;AppModule</title>
<path fill="none" stroke="black" d="M527,-122.13C527,-142.57 527,-173 527,-173 527,-173 1315.06,-173 1315.06,-173"/>
<polygon fill="black" stroke="black" points="1315.06,-176.5 1325.06,-173 1315.06,-169.5 1315.06,-176.5"/>
</g>
<!-- UsersComponent -->
<g id="node17" class="node">
<title>UsersComponent</title>
<polygon fill="#ffffb3" stroke="black" points="455.7,-122 342.3,-122 342.3,-86 455.7,-86 455.7,-122"/>
<text text-anchor="middle" x="399" y="-99.8" font-family="Times,serif" font-size="14.00">UsersComponent</text>
</g>
<!-- UsersComponent&#45;&gt;AppModule -->
<g id="edge17" class="edge">
<title>UsersComponent&#45;&gt;AppModule</title>
<path fill="none" stroke="black" d="M399,-122.04C399,-143.66 399,-177 399,-177 399,-177 1315.1,-177 1315.1,-177"/>
<polygon fill="black" stroke="black" points="1315.1,-180.5 1325.1,-177 1315.1,-173.5 1315.1,-180.5"/>
</g>
<!-- AppComponent  -->
<g id="node20" class="node">
<title>AppComponent </title>
<polygon fill="#80b1d3" stroke="black" points="1421.44,-252 1312.56,-252 1312.56,-216 1421.44,-216 1421.44,-252"/>
<text text-anchor="middle" x="1367" y="-229.8" font-family="Times,serif" font-size="14.00">AppComponent </text>
</g>
<!-- AppModule&#45;&gt;AppComponent  -->
<g id="edge19" class="edge">
<title>AppModule&#45;&gt;AppComponent </title>
<path fill="none" stroke="black" stroke-dasharray="1,5" d="M1367,-187.11C1367,-187.11 1367,-205.99 1367,-205.99"/>
<polygon fill="black" stroke="black" points="1363.5,-205.99 1367,-215.99 1370.5,-205.99 1363.5,-205.99"/>
</g>
<!-- NgzorroModule -->
<g id="node19" class="node">
<title>NgzorroModule</title>
<polygon fill="#8dd3c7" stroke="black" points="318.19,-122 315.19,-126 294.19,-126 291.19,-122 211.81,-122 211.81,-86 318.19,-86 318.19,-122"/>
<text text-anchor="middle" x="265" y="-99.8" font-family="Times,serif" font-size="14.00">NgzorroModule</text>
</g>
<!-- NgzorroModule&#45;&gt;AppModule -->
<g id="edge18" class="edge">
<title>NgzorroModule&#45;&gt;AppModule</title>
<path fill="none" stroke="black" d="M265,-122.01C265,-144.49 265,-180 265,-180 265,-180 1315.15,-180 1315.15,-180"/>
<polygon fill="black" stroke="black" points="1315.15,-183.5 1325.15,-180 1315.15,-176.5 1315.15,-183.5"/>
</g>
<!-- InterceptorService -->
<g id="node21" class="node">
<title>InterceptorService</title>
<ellipse fill="#fdb462" stroke="black" cx="106" cy="-104" rx="82.2" ry="18"/>
<text text-anchor="middle" x="106" y="-99.8" font-family="Times,serif" font-size="14.00">InterceptorService</text>
</g>
<!-- InterceptorService&#45;&gt;AppModule -->
<g id="edge20" class="edge">
<title>InterceptorService&#45;&gt;AppModule</title>
<path fill="none" stroke="black" d="M106,-122.15C106,-145.76 106,-184 106,-184 106,-184 1315.04,-184 1315.04,-184"/>
<polygon fill="black" stroke="black" points="1315.04,-187.5 1325.04,-184 1315.04,-180.5 1315.04,-187.5"/>
</g>
</g>
</svg>
