<?xml version="1.0" encoding="UTF-8" standalone="no"?>
<!DOCTYPE svg PUBLIC "-//W3C//DTD SVG 1.1//EN"
 "http://www.w3.org/Graphics/SVG/1.1/DTD/svg11.dtd">
<!-- Generated by graphviz version 2.46.0 (20210119.1425)
 -->
<!-- Title: dependencies Pages: 1 -->
<svg width="1964pt" height="284pt"
 viewBox="0.00 0.00 1964.00 284.00" xmlns="http://www.w3.org/2000/svg" xmlns:xlink="http://www.w3.org/1999/xlink">
<g id="graph0" class="graph" transform="scale(1 1) rotate(0) translate(4 280)">
<title>dependencies</title>
<polygon fill="white" stroke="transparent" points="-4,4 -4,-280 1960,-280 1960,4 -4,4"/>
<text text-anchor="start" x="957.01" y="-42.4" font-family="sans-serif" font-weight="bold" font-size="14.00">Legend</text>
<polygon fill="#ffffb3" stroke="transparent" points="744,-10 744,-30 764,-30 764,-10 744,-10"/>
<text text-anchor="start" x="767.63" y="-15.4" font-family="sans-serif" font-size="14.00"> &#160;Declarations</text>
<polygon fill="#8dd3c7" stroke="transparent" points="857,-10 857,-30 877,-30 877,-10 857,-10"/>
<text text-anchor="start" x="880.73" y="-15.4" font-family="sans-serif" font-size="14.00"> &#160;Module</text>
<polygon fill="#80b1d3" stroke="transparent" points="943,-10 943,-30 963,-30 963,-10 943,-10"/>
<text text-anchor="start" x="966.78" y="-15.4" font-family="sans-serif" font-size="14.00"> &#160;Bootstrap</text>
<polygon fill="#fdb462" stroke="transparent" points="1040,-10 1040,-30 1060,-30 1060,-10 1040,-10"/>
<text text-anchor="start" x="1063.67" y="-15.4" font-family="sans-serif" font-size="14.00"> &#160;Providers</text>
<polygon fill="#fb8072" stroke="transparent" points="1136,-10 1136,-30 1156,-30 1156,-10 1136,-10"/>
<text text-anchor="start" x="1159.73" y="-15.4" font-family="sans-serif" font-size="14.00"> &#160;Exports</text>
<g id="clust1" class="cluster">
<title>cluster_AppModule</title>
<polygon fill="none" stroke="black" stroke-dasharray="1,5" points="8,-70 8,-268 1948,-268 1948,-70 8,-70"/>
</g>
<g id="clust18" class="cluster">
<title>cluster_AppModule_bootstrap</title>
<polygon fill="none" stroke="black" points="880,-208 880,-260 1004,-260 1004,-208 880,-208"/>
</g>
<g id="clust2" class="cluster">
<title>cluster_AppModule_declarations</title>
<polygon fill="none" stroke="black" points="146,-78 146,-130 1940,-130 1940,-78 146,-78"/>
</g>
<g id="clust16" class="cluster">
<title>cluster_AppModule_imports</title>
<polygon fill="none" stroke="black" points="16,-78 16,-130 138,-130 138,-78 16,-78"/>
</g>
<!-- AppComponent -->
<g id="node1" class="node">
<title>AppComponent</title>
<polygon fill="#ffffb3" stroke="black" points="1931.94,-122 1826.06,-122 1826.06,-86 1931.94,-86 1931.94,-122"/>
<text text-anchor="middle" x="1879" y="-99.8" font-family="Times,serif" font-size="14.00">AppComponent</text>
</g>
<!-- AppModule -->
<g id="node14" class="node">
<title>AppModule</title>
<polygon fill="#8dd3c7" stroke="black" points="983.66,-187 980.66,-191 959.66,-191 956.66,-187 900.34,-187 900.34,-151 983.66,-151 983.66,-187"/>
<text text-anchor="middle" x="942" y="-164.8" font-family="Times,serif" font-size="14.00">AppModule</text>
</g>
<!-- AppComponent&#45;&gt;AppModule -->
<g id="edge1" class="edge">
<title>AppComponent&#45;&gt;AppModule</title>
<path fill="none" stroke="black" d="M1879,-122.09C1879,-145.13 1879,-182 1879,-182 1879,-182 993.78,-182 993.78,-182"/>
<polygon fill="black" stroke="black" points="993.78,-178.5 983.78,-182 993.78,-185.5 993.78,-178.5"/>
</g>
<!-- BreadcrumbComponent -->
<g id="node2" class="node">
<title>BreadcrumbComponent</title>
<polygon fill="#ffffb3" stroke="black" points="1808.03,-122 1657.97,-122 1657.97,-86 1808.03,-86 1808.03,-122"/>
<text text-anchor="middle" x="1733" y="-99.8" font-family="Times,serif" font-size="14.00">BreadcrumbComponent</text>
</g>
<!-- BreadcrumbComponent&#45;&gt;AppModule -->
<g id="edge2" class="edge">
<title>BreadcrumbComponent&#45;&gt;AppModule</title>
<path fill="none" stroke="black" d="M1733,-122.04C1733,-143.66 1733,-177 1733,-177 1733,-177 993.69,-177 993.69,-177"/>
<polygon fill="black" stroke="black" points="993.69,-173.5 983.69,-177 993.69,-180.5 993.69,-173.5"/>
</g>
<!-- ConfigComponent -->
<g id="node3" class="node">
<title>ConfigComponent</title>
<polygon fill="#ffffb3" stroke="black" points="1640.22,-122 1519.78,-122 1519.78,-86 1640.22,-86 1640.22,-122"/>
<text text-anchor="middle" x="1580" y="-99.8" font-family="Times,serif" font-size="14.00">ConfigComponent</text>
</g>
<!-- ConfigComponent&#45;&gt;AppModule -->
<g id="edge3" class="edge">
<title>ConfigComponent&#45;&gt;AppModule</title>
<path fill="none" stroke="black" d="M1580,-122.22C1580,-142.37 1580,-172 1580,-172 1580,-172 993.86,-172 993.86,-172"/>
<polygon fill="black" stroke="black" points="993.86,-168.5 983.86,-172 993.86,-175.5 993.86,-168.5"/>
</g>
<!-- DashboardComponent -->
<g id="node4" class="node">
<title>DashboardComponent</title>
<polygon fill="#ffffb3" stroke="black" points="1501.97,-122 1360.03,-122 1360.03,-86 1501.97,-86 1501.97,-122"/>
<text text-anchor="middle" x="1431" y="-99.8" font-family="Times,serif" font-size="14.00">DashboardComponent</text>
</g>
<!-- DashboardComponent&#45;&gt;AppModule -->
<g id="edge4" class="edge">
<title>DashboardComponent&#45;&gt;AppModule</title>
<path fill="none" stroke="black" d="M1431,-122.22C1431,-140.83 1431,-167 1431,-167 1431,-167 993.69,-167 993.69,-167"/>
<polygon fill="black" stroke="black" points="993.69,-163.5 983.69,-167 993.69,-170.5 993.69,-163.5"/>
</g>
<!-- FooterComponent -->
<g id="node5" class="node">
<title>FooterComponent</title>
<polygon fill="#ffffb3" stroke="black" points="1341.88,-122 1224.12,-122 1224.12,-86 1341.88,-86 1341.88,-122"/>
<text text-anchor="middle" x="1283" y="-99.8" font-family="Times,serif" font-size="14.00">FooterComponent</text>
</g>
<!-- FooterComponent&#45;&gt;AppModule -->
<g id="edge5" class="edge">
<title>FooterComponent&#45;&gt;AppModule</title>
<path fill="none" stroke="black" d="M1283,-122.03C1283,-139.06 1283,-162 1283,-162 1283,-162 993.81,-162 993.81,-162"/>
<polygon fill="black" stroke="black" points="993.81,-158.5 983.81,-162 993.81,-165.5 993.81,-158.5"/>
</g>
<!-- LoginComponent -->
<g id="node6" class="node">
<title>LoginComponent</title>
<polygon fill="#ffffb3" stroke="black" points="1206.28,-122 1091.72,-122 1091.72,-86 1206.28,-86 1206.28,-122"/>
<text text-anchor="middle" x="1149" y="-99.8" font-family="Times,serif" font-size="14.00">LoginComponent</text>
</g>
<!-- LoginComponent&#45;&gt;AppModule -->
<g id="edge6" class="edge">
<title>LoginComponent&#45;&gt;AppModule</title>
<path fill="none" stroke="black" d="M1149,-122.24C1149,-137.57 1149,-157 1149,-157 1149,-157 993.89,-157 993.89,-157"/>
<polygon fill="black" stroke="black" points="993.89,-153.5 983.89,-157 993.89,-160.5 993.89,-153.5"/>
</g>
<!-- PagesComponent -->
<g id="node7" class="node">
<title>PagesComponent</title>
<polygon fill="#ffffb3" stroke="black" points="1073.99,-122 960.01,-122 960.01,-86 1073.99,-86 1073.99,-122"/>
<text text-anchor="middle" x="1017" y="-99.8" font-family="Times,serif" font-size="14.00">PagesComponent</text>
</g>
<!-- PagesComponent&#45;&gt;AppModule -->
<g id="edge7" class="edge">
<title>PagesComponent&#45;&gt;AppModule</title>
<path fill="none" stroke="black" d="M971.92,-122.11C971.92,-122.11 971.92,-140.99 971.92,-140.99"/>
<polygon fill="black" stroke="black" points="968.42,-140.99 971.92,-150.99 975.42,-140.99 968.42,-140.99"/>
</g>
<!-- PercentagesComponent -->
<g id="node8" class="node">
<title>PercentagesComponent</title>
<polygon fill="#ffffb3" stroke="black" points="942.18,-122 793.82,-122 793.82,-86 942.18,-86 942.18,-122"/>
<text text-anchor="middle" x="868" y="-99.8" font-family="Times,serif" font-size="14.00">PercentagesComponent</text>
</g>
<!-- PercentagesComponent&#45;&gt;AppModule -->
<g id="edge8" class="edge">
<title>PercentagesComponent&#45;&gt;AppModule</title>
<path fill="none" stroke="black" d="M921.13,-122.11C921.13,-122.11 921.13,-140.99 921.13,-140.99"/>
<polygon fill="black" stroke="black" points="917.63,-140.99 921.13,-150.99 924.63,-140.99 917.63,-140.99"/>
</g>
<!-- SiderComponent -->
<g id="node9" class="node">
<title>SiderComponent</title>
<polygon fill="#ffffb3" stroke="black" points="775.38,-122 664.62,-122 664.62,-86 775.38,-86 775.38,-122"/>
<text text-anchor="middle" x="720" y="-99.8" font-family="Times,serif" font-size="14.00">SiderComponent</text>
</g>
<!-- SiderComponent&#45;&gt;AppModule -->
<g id="edge9" class="edge">
<title>SiderComponent&#45;&gt;AppModule</title>
<path fill="none" stroke="black" d="M720,-122.24C720,-137.57 720,-157 720,-157 720,-157 890.24,-157 890.24,-157"/>
<polygon fill="black" stroke="black" points="890.24,-160.5 900.24,-157 890.24,-153.5 890.24,-160.5"/>
</g>
<!-- TaxComponent -->
<g id="node10" class="node">
<title>TaxComponent</title>
<polygon fill="#ffffb3" stroke="black" points="646.6,-122 543.4,-122 543.4,-86 646.6,-86 646.6,-122"/>
<text text-anchor="middle" x="595" y="-99.8" font-family="Times,serif" font-size="14.00">TaxComponent</text>
</g>
<!-- TaxComponent&#45;&gt;AppModule -->
<g id="edge10" class="edge">
<title>TaxComponent&#45;&gt;AppModule</title>
<path fill="none" stroke="black" d="M595,-122.03C595,-139.06 595,-162 595,-162 595,-162 890.14,-162 890.14,-162"/>
<polygon fill="black" stroke="black" points="890.14,-165.5 900.14,-162 890.14,-158.5 890.14,-165.5"/>
</g>
<!-- TaxesComponent -->
<g id="node11" class="node">
<title>TaxesComponent</title>
<polygon fill="#ffffb3" stroke="black" points="525.26,-122 410.74,-122 410.74,-86 525.26,-86 525.26,-122"/>
<text text-anchor="middle" x="468" y="-99.8" font-family="Times,serif" font-size="14.00">TaxesComponent</text>
</g>
<!-- TaxesComponent&#45;&gt;AppModule -->
<g id="edge11" class="edge">
<title>TaxesComponent&#45;&gt;AppModule</title>
<path fill="none" stroke="black" d="M468,-122.22C468,-140.83 468,-167 468,-167 468,-167 889.94,-167 889.94,-167"/>
<polygon fill="black" stroke="black" points="889.94,-170.5 899.94,-167 889.94,-163.5 889.94,-170.5"/>
</g>
<!-- UserComponent -->
<g id="node12" class="node">
<title>UserComponent</title>
<polygon fill="#ffffb3" stroke="black" points="392.76,-122 285.24,-122 285.24,-86 392.76,-86 392.76,-122"/>
<text text-anchor="middle" x="339" y="-99.8" font-family="Times,serif" font-size="14.00">UserComponent</text>
</g>
<!-- UserComponent&#45;&gt;AppModule -->
<g id="edge12" class="edge">
<title>UserComponent&#45;&gt;AppModule</title>
<path fill="none" stroke="black" d="M339,-122.22C339,-142.37 339,-172 339,-172 339,-172 890.08,-172 890.08,-172"/>
<polygon fill="black" stroke="black" points="890.08,-175.5 900.08,-172 890.08,-168.5 890.08,-175.5"/>
</g>
<!-- UsersComponent -->
<g id="node13" class="node">
<title>UsersComponent</title>
<polygon fill="#ffffb3" stroke="black" points="267.7,-122 154.3,-122 154.3,-86 267.7,-86 267.7,-122"/>
<text text-anchor="middle" x="211" y="-99.8" font-family="Times,serif" font-size="14.00">UsersComponent</text>
</g>
<!-- UsersComponent&#45;&gt;AppModule -->
<g id="edge13" class="edge">
<title>UsersComponent&#45;&gt;AppModule</title>
<path fill="none" stroke="black" d="M211,-122.04C211,-143.66 211,-177 211,-177 211,-177 890.34,-177 890.34,-177"/>
<polygon fill="black" stroke="black" points="890.34,-180.5 900.34,-177 890.34,-173.5 890.34,-180.5"/>
</g>
<!-- AppComponent  -->
<g id="node16" class="node">
<title>AppComponent </title>
<polygon fill="#80b1d3" stroke="black" points="996.44,-252 887.56,-252 887.56,-216 996.44,-216 996.44,-252"/>
<text text-anchor="middle" x="942" y="-229.8" font-family="Times,serif" font-size="14.00">AppComponent </text>
</g>
<!-- AppModule&#45;&gt;AppComponent  -->
<g id="edge15" class="edge">
<title>AppModule&#45;&gt;AppComponent </title>
<path fill="none" stroke="black" stroke-dasharray="1,5" d="M942,-187.11C942,-187.11 942,-205.99 942,-205.99"/>
<polygon fill="black" stroke="black" points="938.5,-205.99 942,-215.99 945.5,-205.99 938.5,-205.99"/>
</g>
<!-- NgzorroModule -->
<g id="node15" class="node">
<title>NgzorroModule</title>
<polygon fill="#8dd3c7" stroke="black" points="130.19,-122 127.19,-126 106.19,-126 103.19,-122 23.81,-122 23.81,-86 130.19,-86 130.19,-122"/>
<text text-anchor="middle" x="77" y="-99.8" font-family="Times,serif" font-size="14.00">NgzorroModule</text>
</g>
<!-- NgzorroModule&#45;&gt;AppModule -->
<g id="edge14" class="edge">
<title>NgzorroModule&#45;&gt;AppModule</title>
<path fill="none" stroke="black" d="M77,-122.09C77,-145.13 77,-182 77,-182 77,-182 890.28,-182 890.28,-182"/>
<polygon fill="black" stroke="black" points="890.28,-185.5 900.28,-182 890.28,-178.5 890.28,-185.5"/>
</g>
</g>
</svg>
