<?xml version="1.0" encoding="UTF-8" standalone="no"?>
<!DOCTYPE svg PUBLIC "-//W3C//DTD SVG 1.1//EN"
 "http://www.w3.org/Graphics/SVG/1.1/DTD/svg11.dtd">
<!-- Generated by graphviz version 2.46.0 (20210119.1425)
 -->
<!-- Title: dependencies Pages: 1 -->
<svg width="1405pt" height="284pt"
 viewBox="0.00 0.00 1405.00 284.00" xmlns="http://www.w3.org/2000/svg" xmlns:xlink="http://www.w3.org/1999/xlink">
<g id="graph0" class="graph" transform="scale(1 1) rotate(0) translate(4 280)">
<title>dependencies</title>
<polygon fill="white" stroke="transparent" points="-4,4 -4,-280 1401,-280 1401,4 -4,4"/>
<text text-anchor="start" x="677.51" y="-42.4" font-family="sans-serif" font-weight="bold" font-size="14.00">Legend</text>
<polygon fill="#ffffb3" stroke="transparent" points="464.5,-10 464.5,-30 484.5,-30 484.5,-10 464.5,-10"/>
<text text-anchor="start" x="488.13" y="-15.4" font-family="sans-serif" font-size="14.00"> &#160;Declarations</text>
<polygon fill="#8dd3c7" stroke="transparent" points="577.5,-10 577.5,-30 597.5,-30 597.5,-10 577.5,-10"/>
<text text-anchor="start" x="601.23" y="-15.4" font-family="sans-serif" font-size="14.00"> &#160;Module</text>
<polygon fill="#80b1d3" stroke="transparent" points="663.5,-10 663.5,-30 683.5,-30 683.5,-10 663.5,-10"/>
<text text-anchor="start" x="687.28" y="-15.4" font-family="sans-serif" font-size="14.00"> &#160;Bootstrap</text>
<polygon fill="#fdb462" stroke="transparent" points="760.5,-10 760.5,-30 780.5,-30 780.5,-10 760.5,-10"/>
<text text-anchor="start" x="784.17" y="-15.4" font-family="sans-serif" font-size="14.00"> &#160;Providers</text>
<polygon fill="#fb8072" stroke="transparent" points="856.5,-10 856.5,-30 876.5,-30 876.5,-10 856.5,-10"/>
<text text-anchor="start" x="880.23" y="-15.4" font-family="sans-serif" font-size="14.00"> &#160;Exports</text>
<g id="clust1" class="cluster">
<title>cluster_AppModule</title>
<polygon fill="none" stroke="black" stroke-dasharray="1,5" points="8,-70 8,-268 1389,-268 1389,-70 8,-70"/>
</g>
<g id="clust2" class="cluster">
<title>cluster_AppModule_declarations</title>
<polygon fill="none" stroke="black" points="146,-78 146,-130 1381,-130 1381,-78 146,-78"/>
</g>
<g id="clust12" class="cluster">
<title>cluster_AppModule_imports</title>
<polygon fill="none" stroke="black" points="16,-78 16,-130 138,-130 138,-78 16,-78"/>
</g>
<g id="clust14" class="cluster">
<title>cluster_AppModule_bootstrap</title>
<polygon fill="none" stroke="black" points="600,-208 600,-260 724,-260 724,-208 600,-208"/>
</g>
<!-- AppComponent -->
<g id="node1" class="node">
<title>AppComponent</title>
<polygon fill="#ffffb3" stroke="black" points="1372.94,-122 1267.06,-122 1267.06,-86 1372.94,-86 1372.94,-122"/>
<text text-anchor="middle" x="1320" y="-99.8" font-family="Times,serif" font-size="14.00">AppComponent</text>
</g>
<!-- AppModule -->
<g id="node10" class="node">
<title>AppModule</title>
<polygon fill="#8dd3c7" stroke="black" points="703.66,-187 700.66,-191 679.66,-191 676.66,-187 620.34,-187 620.34,-151 703.66,-151 703.66,-187"/>
<text text-anchor="middle" x="662" y="-164.8" font-family="Times,serif" font-size="14.00">AppModule</text>
</g>
<!-- AppComponent&#45;&gt;AppModule -->
<g id="edge1" class="edge">
<title>AppComponent&#45;&gt;AppModule</title>
<path fill="none" stroke="black" d="M1320,-122.01C1320,-144.49 1320,-180 1320,-180 1320,-180 713.66,-180 713.66,-180"/>
<polygon fill="black" stroke="black" points="713.66,-176.5 703.66,-180 713.66,-183.5 713.66,-176.5"/>
</g>
<!-- BreadcrumbComponent -->
<g id="node2" class="node">
<title>BreadcrumbComponent</title>
<polygon fill="#ffffb3" stroke="black" points="1249.03,-122 1098.97,-122 1098.97,-86 1249.03,-86 1249.03,-122"/>
<text text-anchor="middle" x="1174" y="-99.8" font-family="Times,serif" font-size="14.00">BreadcrumbComponent</text>
</g>
<!-- BreadcrumbComponent&#45;&gt;AppModule -->
<g id="edge2" class="edge">
<title>BreadcrumbComponent&#45;&gt;AppModule</title>
<path fill="none" stroke="black" d="M1174,-122.13C1174,-142.57 1174,-173 1174,-173 1174,-173 713.9,-173 713.9,-173"/>
<polygon fill="black" stroke="black" points="713.9,-169.5 703.9,-173 713.9,-176.5 713.9,-169.5"/>
</g>
<!-- DashboardComponent -->
<g id="node3" class="node">
<title>DashboardComponent</title>
<polygon fill="#ffffb3" stroke="black" points="1080.97,-122 939.03,-122 939.03,-86 1080.97,-86 1080.97,-122"/>
<text text-anchor="middle" x="1010" y="-99.8" font-family="Times,serif" font-size="14.00">DashboardComponent</text>
</g>
<!-- DashboardComponent&#45;&gt;AppModule -->
<g id="edge3" class="edge">
<title>DashboardComponent&#45;&gt;AppModule</title>
<path fill="none" stroke="black" d="M1010,-122.27C1010,-140.56 1010,-166 1010,-166 1010,-166 713.98,-166 713.98,-166"/>
<polygon fill="black" stroke="black" points="713.98,-162.5 703.98,-166 713.98,-169.5 713.98,-162.5"/>
</g>
<!-- FooterComponent -->
<g id="node4" class="node">
<title>FooterComponent</title>
<polygon fill="#ffffb3" stroke="black" points="920.88,-122 803.12,-122 803.12,-86 920.88,-86 920.88,-122"/>
<text text-anchor="middle" x="862" y="-99.8" font-family="Times,serif" font-size="14.00">FooterComponent</text>
</g>
<!-- FooterComponent&#45;&gt;AppModule -->
<g id="edge4" class="edge">
<title>FooterComponent&#45;&gt;AppModule</title>
<path fill="none" stroke="black" d="M862,-122.01C862,-138.05 862,-159 862,-159 862,-159 713.93,-159 713.93,-159"/>
<polygon fill="black" stroke="black" points="713.93,-155.5 703.93,-159 713.93,-162.5 713.93,-155.5"/>
</g>
<!-- LoginComponent -->
<g id="node5" class="node">
<title>LoginComponent</title>
<polygon fill="#ffffb3" stroke="black" points="785.28,-122 670.72,-122 670.72,-86 785.28,-86 785.28,-122"/>
<text text-anchor="middle" x="728" y="-99.8" font-family="Times,serif" font-size="14.00">LoginComponent</text>
</g>
<!-- LoginComponent&#45;&gt;AppModule -->
<g id="edge5" class="edge">
<title>LoginComponent&#45;&gt;AppModule</title>
<path fill="none" stroke="black" d="M687.22,-122.11C687.22,-122.11 687.22,-140.99 687.22,-140.99"/>
<polygon fill="black" stroke="black" points="683.72,-140.99 687.22,-150.99 690.72,-140.99 683.72,-140.99"/>
</g>
<!-- PagesComponent -->
<g id="node6" class="node">
<title>PagesComponent</title>
<polygon fill="#ffffb3" stroke="black" points="652.99,-122 539.01,-122 539.01,-86 652.99,-86 652.99,-122"/>
<text text-anchor="middle" x="596" y="-99.8" font-family="Times,serif" font-size="14.00">PagesComponent</text>
</g>
<!-- PagesComponent&#45;&gt;AppModule -->
<g id="edge6" class="edge">
<title>PagesComponent&#45;&gt;AppModule</title>
<path fill="none" stroke="black" d="M636.58,-122.11C636.58,-122.11 636.58,-140.99 636.58,-140.99"/>
<polygon fill="black" stroke="black" points="633.08,-140.99 636.58,-150.99 640.08,-140.99 633.08,-140.99"/>
</g>
<!-- SiderComponent -->
<g id="node7" class="node">
<title>SiderComponent</title>
<polygon fill="#ffffb3" stroke="black" points="521.38,-122 410.62,-122 410.62,-86 521.38,-86 521.38,-122"/>
<text text-anchor="middle" x="466" y="-99.8" font-family="Times,serif" font-size="14.00">SiderComponent</text>
</g>
<!-- SiderComponent&#45;&gt;AppModule -->
<g id="edge7" class="edge">
<title>SiderComponent&#45;&gt;AppModule</title>
<path fill="none" stroke="black" d="M466,-122.01C466,-138.05 466,-159 466,-159 466,-159 609.95,-159 609.95,-159"/>
<polygon fill="black" stroke="black" points="609.95,-162.5 619.95,-159 609.95,-155.5 609.95,-162.5"/>
</g>
<!-- UserComponent -->
<g id="node8" class="node">
<title>UserComponent</title>
<polygon fill="#ffffb3" stroke="black" points="392.76,-122 285.24,-122 285.24,-86 392.76,-86 392.76,-122"/>
<text text-anchor="middle" x="339" y="-99.8" font-family="Times,serif" font-size="14.00">UserComponent</text>
</g>
<!-- UserComponent&#45;&gt;AppModule -->
<g id="edge8" class="edge">
<title>UserComponent&#45;&gt;AppModule</title>
<path fill="none" stroke="black" d="M339,-122.27C339,-140.56 339,-166 339,-166 339,-166 610.1,-166 610.1,-166"/>
<polygon fill="black" stroke="black" points="610.1,-169.5 620.1,-166 610.1,-162.5 610.1,-169.5"/>
</g>
<!-- UsersComponent -->
<g id="node9" class="node">
<title>UsersComponent</title>
<polygon fill="#ffffb3" stroke="black" points="267.7,-122 154.3,-122 154.3,-86 267.7,-86 267.7,-122"/>
<text text-anchor="middle" x="211" y="-99.8" font-family="Times,serif" font-size="14.00">UsersComponent</text>
</g>
<!-- UsersComponent&#45;&gt;AppModule -->
<g id="edge9" class="edge">
<title>UsersComponent&#45;&gt;AppModule</title>
<path fill="none" stroke="black" d="M211,-122.13C211,-142.57 211,-173 211,-173 211,-173 609.98,-173 609.98,-173"/>
<polygon fill="black" stroke="black" points="609.98,-176.5 619.98,-173 609.98,-169.5 609.98,-176.5"/>
</g>
<!-- AppComponent  -->
<g id="node12" class="node">
<title>AppComponent </title>
<polygon fill="#80b1d3" stroke="black" points="716.44,-252 607.56,-252 607.56,-216 716.44,-216 716.44,-252"/>
<text text-anchor="middle" x="662" y="-229.8" font-family="Times,serif" font-size="14.00">AppComponent </text>
</g>
<!-- AppModule&#45;&gt;AppComponent  -->
<g id="edge11" class="edge">
<title>AppModule&#45;&gt;AppComponent </title>
<path fill="none" stroke="black" stroke-dasharray="1,5" d="M662,-187.11C662,-187.11 662,-205.99 662,-205.99"/>
<polygon fill="black" stroke="black" points="658.5,-205.99 662,-215.99 665.5,-205.99 658.5,-205.99"/>
</g>
<!-- NgzorroModule -->
<g id="node11" class="node">
<title>NgzorroModule</title>
<polygon fill="#8dd3c7" stroke="black" points="130.19,-122 127.19,-126 106.19,-126 103.19,-122 23.81,-122 23.81,-86 130.19,-86 130.19,-122"/>
<text text-anchor="middle" x="77" y="-99.8" font-family="Times,serif" font-size="14.00">NgzorroModule</text>
</g>
<!-- NgzorroModule&#45;&gt;AppModule -->
<g id="edge10" class="edge">
<title>NgzorroModule&#45;&gt;AppModule</title>
<path fill="none" stroke="black" d="M77,-122.01C77,-144.49 77,-180 77,-180 77,-180 609.93,-180 609.93,-180"/>
<polygon fill="black" stroke="black" points="609.93,-183.5 619.93,-180 609.93,-176.5 609.93,-183.5"/>
</g>
</g>
</svg>
